<?xml version="1.0" encoding="UTF-8" standalone="no"?>
<svg width="14px" height="16px" viewBox="0 0 14 16" version="1.1" xmlns="http://www.w3.org/2000/svg" xmlns:xlink="http://www.w3.org/1999/xlink">
    <!-- Generator: Sketch 39.1 (31720) - http://www.bohemiancoding.com/sketch -->
    <title>icon-地址</title>
    <desc>Created with Sketch.</desc>
    <defs></defs>
    <g id="Symbols" stroke="none" stroke-width="1" fill="none" fill-rule="evenodd">
        <g id="模块/班级基本信息" transform="translate(-41.000000, -99.000000)" fill="#999999">
            <g id="icon/地图-灰" transform="translate(40.000000, 99.000000)">
                <path d="M7.32917961,14.6583592 C7.85496168,14.3954682 9.52526564,13.0529137 10.789399,11.7271289 C12.5004971,9.93258096 13.5,8.22807789 13.5,7 C13.5,3.96243388 11.0375661,1.5 8,1.5 C4.96243388,1.5 2.5,3.96243388 2.5,7 C2.5,8.22807789 3.49950289,9.93258096 5.21060102,11.7271289 C6.47473436,13.0529137 8.14503832,14.3954682 8.67082039,14.6583592 L8,16 L7.32917961,14.6583592 Z M1,7 C1,3.13400675 4.13400675,0 8,0 C11.8659932,0 15,3.13400675 15,7 C15,10.8659932 9,15.5 8,16 C7,15.5 1,10.8659932 1,7 Z" id="Oval-5"></path>
                <path d="M9.5,7 C9.5,6.17157288 8.82842712,5.5 8,5.5 C7.17157288,5.5 6.5,6.17157288 6.5,7 C6.5,7.82842712 7.17157288,8.5 8,8.5 C8.82842712,8.5 9.5,7.82842712 9.5,7 Z M5,7 C5,5.34314575 6.34314575,4 8,4 C9.65685425,4 11,5.34314575 11,7 C11,8.65685425 9.65685425,10 8,10 C6.34314575,10 5,8.65685425 5,7 Z" id="Oval"></path>
            </g>
        </g>
    </g>
</svg>