<?xml version="1.0" encoding="utf-8"?>
<!-- Generator: Adobe Illustrator 18.0.0, SVG Export Plug-In . SVG Version: 6.00 Build 0)  -->
<!DOCTYPE svg PUBLIC "-//W3C//DTD SVG 1.1//EN" "http://www.w3.org/Graphics/SVG/1.1/DTD/svg11.dtd">
<svg version="1.1" id="图层_1" xmlns="http://www.w3.org/2000/svg" xmlns:xlink="http://www.w3.org/1999/xlink" x="0px" y="0px"
	 viewBox="-500.4 -500.9 1024 1024" enable-background="new -500.4 -500.9 1024 1024" xml:space="preserve">
<path fill="#333333" d="M428.7,85.3L56.1,452.7c-10.5,10.5-21,10.5-31.5,10.5s-21-5.2-31.5-10.5L-379.4,85.3
	c-15.7-10.5-15.7-31.5-10.5-47.2c5.2-15.7,21-26.2,42-26.2h120.7v-393.6c0-26.2,21-42,47.2-42h419.8c26.2,0,47.2,21,47.2,42V11.8
	h110.2c21,0,36.7,10.5,42,26.2C444.5,53.8,439.2,69.6,428.7,85.3z M150.6-208.6l-21-15.7c-5.2-5.2-15.7,0-15.7,5.2l-84,110.2
	l-84-110.2c-5.2-5.2-10.5-5.2-15.7-5.2l-21,15.7c-5.2,5.2-5.2,10.5-5.2,15.7l73.5,94.5h-42c-5.2,0-10.5,5.2-10.5,10.5v21
	c0,5.2,5.2,10.5,10.5,10.5H8.9v63h-73.5c-5.2,0-10.5,5.2-10.5,10.5v21c0,5.2,5.2,10.5,10.5,10.5H8.9V122c0,5.2,5.2,10.5,10.5,10.5
	h21c5.2,0,10.5-5.2,10.5-10.5V48.6h73.5c5.2,0,10.5-5.2,10.5-10.5v-21c0-5.2-5.2-10.5-10.5-10.5H50.9v-63h73.5
	c5.2,0,10.5-5.2,10.5-10.5v-21c0-5.2-5.2-10.5-10.5-10.5h-42l73.5-94.5C161.1-198.1,161.1-203.3,150.6-208.6z"/>
</svg>
