<?xml version="1.0" encoding="utf-8"?>
<!-- Generator: Adobe Illustrator 18.0.0, SVG Export Plug-In . SVG Version: 6.00 Build 0)  -->
<!DOCTYPE svg PUBLIC "-//W3C//DTD SVG 1.1//EN" "http://www.w3.org/Graphics/SVG/1.1/DTD/svg11.dtd">
<svg version="1.1" id="图层_1" xmlns="http://www.w3.org/2000/svg" xmlns:xlink="http://www.w3.org/1999/xlink" x="0px" y="0px"
	 viewBox="-467.4 -470.6 1024 1024" enable-background="new -467.4 -470.6 1024 1024" xml:space="preserve">
<g>
	<g>
		<path fill="#DDDDDD" d="M-340.3,354.9c-26.2,0-46.9-20.7-46.9-46.9v-490.4c0-26.2,20.7-46.9,46.9-46.9h725.8
			c26.2,0,46.9,20.7,46.9,46.9v109c20.7,13.1,40.3,28.3,58.8,45.8v-215.8c0-70.8-65.4-64.3-65.4-64.3s-388,0-367.3,0
			c-21.8,1.1-32.7-12-32.7-12s-15.3-26.2-43.6-68.7c-29.4-43.6-63.2-37.1-63.2-37.1h-284.4c-79.6,0-80.6,76.3-80.6,76.3v687.7
			c0,85,64.3,74.1,64.3,74.1h355.3c-13.1-18.5-24-37.1-32.7-57.8H-340.3z M252.5-72.3C103.2-72.3-17.7,48.7-17.7,198
			s122.1,270.3,271.4,270.3c148.2,0,270.3-121,270.3-270.3S402.9-72.3,252.5-72.3z M432.4,113L218.8,327.7c-12,12-31.6,12-44.7,0
			L73.8,227.4c-12-12-12-32.7,0-44.7c12-12,31.6-12,44.7,0l77.4,78.5L387.7,68.3c12-12,31.6-12,44.7,0
			C444.4,80.3,444.4,99.9,432.4,113z"/>
	</g>
</g>
</svg>
