<?xml version="1.0" encoding="utf-8"?>
<!-- Generator: Adobe Illustrator 18.0.0, SVG Export Plug-In . SVG Version: 6.00 Build 0)  -->
<!DOCTYPE svg PUBLIC "-//W3C//DTD SVG 1.1//EN" "http://www.w3.org/Graphics/SVG/1.1/DTD/svg11.dtd">
<svg version="1.1" id="图层_1" xmlns="http://www.w3.org/2000/svg" xmlns:xlink="http://www.w3.org/1999/xlink" x="0px" y="0px"
	 viewBox="-496 -496 1024 1024" enable-background="new -496 -496 1024 1024" xml:space="preserve">
<g>
	<g>
		<path fill="#555555" d="M446.8,20.4c-15.3-3.1-30.7,9.2-33.7,24.5C388.5,226,244.3,370.2,63.3,394.7
			c-15.3,3.1-27.6,15.3-24.5,33.7c3.1,15.3,15.3,24.5,27.6,24.5h3.1C275,425.4,440.6,262.8,468.3,54.2
			C474.4,35.8,462.1,20.4,446.8,20.4z M-44.1,391.7C-225.1,367.1-366.2,226-390.8,45c-3.1-15.3-15.3-27.6-33.7-24.5
			c-15.3,0-27.6,15.3-24.5,30.7C-421.5,256.7-258.9,422.3-50.2,450h3.1c15.3,0,27.6-9.2,27.6-24.5
			C-16.5,410.1-25.7,394.7-44.1,391.7z M-424.5-40.9h3.1c15.3,0,27.6-9.2,27.6-24.5c27.6-181,168.7-322.1,349.8-346.7
			c15.3-3.1,27.6-15.3,24.5-33.7c0-15.3-15.3-27.6-30.7-24.5c-208.6,27.6-371.2,190.2-398.8,398.8
			C-452.2-56.3-439.9-40.9-424.5-40.9z M66.3-412.2c181,24.5,325.2,168.7,349.8,349.8c3.1,15.3,15.3,24.5,27.6,24.5h3.1
			c15.3-3.1,27.6-15.3,24.5-33.7C443.7-280.2,281.1-442.8,72.5-470.4c-15.3-3.1-30.7,9.2-33.7,24.5
			C38.7-430.6,47.9-415.2,66.3-412.2z M66.3,152.4c3.1,0,6.1,0,12.3-3.1c39.9-18.4,73.6-49.1,92-92c6.1-15.3,0-30.7-15.3-36.8
			s-30.7,0-36.8,15.3c-12.3,27.6-33.7,49.1-61.4,61.4c-15.3,6.1-21.5,24.5-15.3,36.8C44.9,146.2,57.1,152.4,66.3,152.4z M-34.9,97.1
			C-62.5,84.9-84,63.4-96.3,35.8c-6.1-15.3-24.5-21.5-36.8-15.3c-15.3,6.1-21.5,24.5-15.3,36.8c18.4,39.9,49.1,73.6,92,92
			c3.1,3.1,9.2,3.1,12.3,3.1c12.3,0,21.5-6.1,27.6-18.4C-13.4,118.6-19.6,103.3-34.9,97.1z M-56.4-169.8c-39.9,18.4-73.6,49.1-92,92
			c-6.1,15.3,0,30.7,15.3,36.8c3.1,3.1,9.2,3.1,12.3,3.1c12.3,0,21.5-6.1,27.6-18.4c12.3-27.6,33.7-49.1,61.4-61.4
			c15.3-6.1,21.5-24.5,15.3-36.8C-25.7-169.8-41-175.9-56.4-169.8z M57.1-117.6c27.6,12.3,49.1,33.7,61.4,61.4
			c6.1,12.3,15.3,18.4,27.6,18.4c3.1,0,9.2,0,12.3-3.1c15.3-6.1,21.5-24.5,15.3-36.8c-18.4-39.9-49.1-73.6-89-89
			c-15.3-6.1-30.7,0-36.8,15.3C35.7-139.1,41.8-123.8,57.1-117.6z M302.6,20.4c-15.3-3.1-30.7,6.1-33.7,21.5
			c-21.5,101.2-101.2,181-202.5,202.5c-15.3,3.1-24.5,18.4-21.5,33.7c3.1,12.3,15.3,24.5,27.6,24.5c3.1,0,3.1,0,6.1,0
			c125.8-24.5,224-122.7,248.5-248.5C327.1,38.8,317.9,23.5,302.6,20.4z M-280.3,20.4c-15.3,3.1-24.5,18.4-21.5,33.7
			c24.5,125.8,122.7,224,248.5,248.5c3.1,0,3.1,0,6.1,0c12.3,0,24.5-9.2,27.6-24.5c3.1-15.3-6.1-30.7-21.5-33.7
			c-101.2-21.5-181-101.2-202.5-202.5C-246.6,26.6-261.9,17.4-280.3,20.4z M-19.6-301.7c-3.1-15.3-18.4-24.5-33.7-21.5
			c-125.8,24.5-224,122.7-248.5,248.5c-3.1,15.3,6.1,30.7,21.5,33.7c3.1,0,3.1,0,6.1,0c12.3,0,24.5-9.2,27.6-24.5
			c21.5-101.2,101.2-181,202.5-202.5C-25.7-268-16.5-283.3-19.6-301.7z M324.1-74.7c-24.5-125.8-122.7-224-248.5-248.5
			c-15.3-3.1-30.7,6.1-33.7,21.5c-3.1,15.3,6.1,30.7,21.5,33.7c104.3,21.5,184.1,101.2,202.5,202.5c3.1,12.3,15.3,24.5,27.6,24.5
			c3.1,0,3.1,0,6.1,0C317.9-44,327.1-59.3,324.1-74.7z"/>
	</g>
</g>
</svg>
