<?xml version="1.0" encoding="utf-8"?>
<!-- Generator: Adobe Illustrator 18.0.0, SVG Export Plug-In . SVG Version: 6.00 Build 0)  -->
<!DOCTYPE svg PUBLIC "-//W3C//DTD SVG 1.1//EN" "http://www.w3.org/Graphics/SVG/1.1/DTD/svg11.dtd">
<svg version="1.1" id="图形" xmlns="http://www.w3.org/2000/svg" xmlns:xlink="http://www.w3.org/1999/xlink" x="0px" y="0px"
	 viewBox="-500.6 -500.7 1024 1024" enable-background="new -500.6 -500.7 1024 1024" xml:space="preserve">
<g>
	<g>
		<path fill="#00CCFF" d="M-390.9-18c-52.8,0-99.1,46.2-99.1,99.1s46.2,99.1,99.1,99.1s99-46.2,99-99.1S-331.5-18-390.9-18z M5.3-18
			c-52.8,0-99.1,46.2-99.1,99.1s46.2,99.1,99.1,99.1s99-46.2,99-99.1S64.7-18,5.3-18z M401.5-18c-52.8,0-99.1,46.2-99.1,99.1
			s46.2,99.1,99.1,99.1s99-46.2,99-99.1S460.9-18,401.5-18z"/>
	</g>
</g>
</svg>
