<?xml version="1.0" encoding="utf-8"?>
<!-- Generator: Adobe Illustrator 18.0.0, SVG Export Plug-In . SVG Version: 6.00 Build 0)  -->
<!DOCTYPE svg PUBLIC "-//W3C//DTD SVG 1.1//EN" "http://www.w3.org/Graphics/SVG/1.1/DTD/svg11.dtd">
<svg version="1.1" id="图层_1" xmlns="http://www.w3.org/2000/svg" xmlns:xlink="http://www.w3.org/1999/xlink" x="0px" y="0px"
	 viewBox="-496 -496 1024 1024" enable-background="new -496 -496 1024 1024" xml:space="preserve">
<path fill="#919EB3" d="M-88.8-195.6h-148.3v-237.3h148.3V-195.6z M-177.8-254.9h29.7v-118.7h-29.7V-254.9z"/>
<path fill="#919EB3" d="M237.5-195.6H89.2v-237.3h148.3V-195.6z M148.5-254.9h29.7v-118.7h-29.7V-254.9z"/>
<path fill="#919EB3" d="M498.9,409.8h-949.4v-741.7h178v59.3h-118.7v623h830.7v-623H320.9v-59.3h178V409.8z"/>
<path fill="#919EB3" d="M-29.5-343.9h59.3v59.3h-59.3V-343.9z"/>
<path fill="#919EB3" d="M-237.2,41.8h474.7v59.3h-474.7V41.8z"/>
<path fill="#919EB3" d="M-237.2,160.5h474.7v59.3h-474.7V160.5z"/>
<path fill="#919EB3" d="M-444.9-136.2h890.1v59.3h-890.1V-136.2z"/>
</svg>
