<?xml version="1.0" encoding="utf-8"?>
<!-- Generator: Adobe Illustrator 18.0.0, SVG Export Plug-In . SVG Version: 6.00 Build 0)  -->
<!DOCTYPE svg PUBLIC "-//W3C//DTD SVG 1.1//EN" "http://www.w3.org/Graphics/SVG/1.1/DTD/svg11.dtd">
<svg version="1.1" id="图形" xmlns="http://www.w3.org/2000/svg" xmlns:xlink="http://www.w3.org/1999/xlink" x="0px" y="0px"
	 viewBox="-500.6 -500.7 1024 1024" enable-background="new -500.6 -500.7 1024 1024" xml:space="preserve">
<g>
	<g>
		<path fill="#555555" d="M35.2-461.6h-62.6v125.2h62.6V-461.6z M-90-461.6h-375.6V-86H-90V-461.6z M-152.6-148.6H-403V-399h250.4
			V-148.6z M-340.4-23.4h-125.2v62.6h125.2V-23.4z M-215.2,39.2H35.2v-250.4h-62.6v187.8h-187.8V39.2z M97.8-461.6V-86h375.6v-375.6
			H97.8z M410.8-148.6H160.4V-399h250.4V-148.6z M-465.6,477.3H-90V101.8h-375.6V477.3z M-403,164.4h250.4v250.4H-403V164.4z
			 M223,39.2h250.4v-62.6H223V39.2z M410.8,414.8h-313v62.6h375.6V101.8h-62.6V414.8z M285.6,164.4h-313v313h62.6V227h250.4V164.4z"
			/>
	</g>
</g>
</svg>
