<?xml version="1.0" encoding="utf-8"?>
<!-- Generator: Adobe Illustrator 18.0.0, SVG Export Plug-In . SVG Version: 6.00 Build 0)  -->
<!DOCTYPE svg PUBLIC "-//W3C//DTD SVG 1.1//EN" "http://www.w3.org/Graphics/SVG/1.1/DTD/svg11.dtd">
<svg version="1.1" id="图层_1" xmlns="http://www.w3.org/2000/svg" xmlns:xlink="http://www.w3.org/1999/xlink" x="0px" y="0px"
	 width="90px" height="85px" viewBox="0 0 90 85" enable-background="new 0 0 90 85" xml:space="preserve">
<g>
	<g>
		<path fill-rule="evenodd" clip-rule="evenodd" fill="#DDDDDD" d="M86.5,46.5h-6.3V7.9c0-2.1-0.8-4-2.2-5.5l-0.1-0.1
			C76.4,0.9,74.5,0,72.3,0H17.7c-2.2,0-4.2,0.9-5.5,2.3c-1.4,1.5-2.3,3.4-2.3,5.6v38.5H3.5C1.5,46.5,0,48,0,49.9v31.6
			C0,83.4,1.5,85,3.5,85h83.1c1.9,0,3.5-1.6,3.5-3.5V49.9C90,48,88.4,46.5,86.5,46.5z M76,46.5h-9.8v0c-1.7,0-3.2,1.2-3.4,2.9
			c-0.7,4.3-2.9,8.2-6.1,10.9c-3.2,2.7-7.3,4.3-11.7,4.3c-4.5,0-8.6-1.6-11.7-4.3c-3.1-2.7-5.4-6.4-6-10.6c-0.2-1.8-1.7-3.2-3.5-3.2
			h-9.8V7.9c0-1,0.4-2,1.1-2.6c0.7-0.7,1.6-1.1,2.7-1.1h54.7c1,0,1.9,0.4,2.7,1.1l0.1,0.1c0.6,0.7,1,1.6,1,2.6V46.5z M43,46h4V11h-4
			V46z M43,55h4v-4h-4V55z"/>
	</g>
</g>
</svg>
