<?xml version="1.0" encoding="UTF-8" standalone="no"?>
<svg width="121px" height="120px" viewBox="0 0 121 120" version="1.1" xmlns="http://www.w3.org/2000/svg" xmlns:xlink="http://www.w3.org/1999/xlink">
    <!-- Generator: Sketch 39.1 (31720) - http://www.bohemiancoding.com/sketch -->
    <title>icon-无冲突课节</title>
    <desc>Created with Sketch.</desc>
    <defs></defs>
    <g id="Page-1" stroke="none" stroke-width="1" fill="none" fill-rule="evenodd">
        <g id="排课-课次详情弹窗" transform="translate(-643.000000, -314.000000)" fill="#DDDDDD">
            <g id="课节详情弹窗" transform="translate(112.000000, 99.000000)">
                <g id="icon/异常/无冲突" transform="translate(531.000000, 215.000000)">
                    <path d="M92,40.7373047 L92,3.99886949 C92,2.89573095 91.1019137,2 89.9910079,2 L4.0089921,2 C2.89702162,2 2,2.89351867 2,3.99261475 L2,116.007385 C2,117.104939 2.89843567,118 4.0089921,118 L89.9910079,118 C91.1010633,118 92,117.100728 92,115.990237 L92,110 L94,110 L94,115.990237 C94,118.204768 92.2061622,120 89.9910079,120 L4.0089921,120 C1.7948869,120 0,118.210539 0,116.007385 L0,3.99261475 C0,1.78755451 1.79383779,0 4.0089921,0 L89.9910079,0 C92.2051131,0 94,1.78978841 94,3.99886949 L94,40.7373047 L92,40.7373047 Z" id="Rectangle-8-Copy-3"></path>
                    <rect id="Rectangle-10-Copy-2" x="19" y="89" width="15" height="2"></rect>
                    <rect id="Rectangle-10-Copy-2" x="19" y="69" width="15" height="2"></rect>
                    <rect id="Rectangle-10-Copy" x="19" y="49" width="27" height="2"></rect>
                    <rect id="Rectangle-10" x="18" y="29" width="58" height="2"></rect>
                    <path d="M51.9540585,75.4540585 C51.9540585,58.6093736 65.6093736,44.9540585 82.4540585,44.9540585 C99.2987433,44.9540585 112.954058,58.6093736 112.954058,75.4540585 C112.954058,92.2987433 99.2987433,105.954058 82.4540585,105.954058 C65.6093736,105.954058 51.9540585,92.2987433 51.9540585,75.4540585 L51.9540585,75.4540585 Z M110.954058,75.4540585 C110.954058,59.7139431 98.1941738,46.9540585 82.4540585,46.9540585 C66.7139431,46.9540585 53.9540585,59.7139431 53.9540585,75.4540585 C53.9540585,91.1941738 66.7139431,103.954058 82.4540585,103.954058 C98.1941738,103.954058 110.954058,91.1941738 110.954058,75.4540585 L110.954058,75.4540585 Z" id="Oval-4" transform="translate(82.454058, 75.454058) rotate(-45.000000) translate(-82.454058, -75.454058) "></path>
                    <rect id="Rectangle" transform="translate(111.445436, 104.445436) rotate(-45.000000) translate(-111.445436, -104.445436) " x="110.445436" y="92.9454365" width="2" height="23"></rect>
                    <polygon id="Path-6" points="79.0618798 85.9757487 79.7686457 86.651977 80.4603114 85.9603114 97.2103117 69.2103111 97.9174185 68.5032043 96.5032049 67.0889907 95.7960981 67.7960975 79.0460978 84.5460978 80.4445294 84.5306605 71.6913248 76.1556602 70.9687807 75.4643354 69.5861311 76.9094236 70.3086752 77.6007484"></polygon>
                </g>
            </g>
        </g>
    </g>
</svg>