<?xml version="1.0" encoding="UTF-8" standalone="no"?>
<svg width="96px" height="120px" viewBox="0 0 96 120" version="1.1" xmlns="http://www.w3.org/2000/svg" xmlns:xlink="http://www.w3.org/1999/xlink">
    <!-- Generator: Sketch 39.1 (31720) - http://www.bohemiancoding.com/sketch -->
    <title>icon-列表为空</title>
    <desc>Created with Sketch.</desc>
    <defs></defs>
    <g id="Page-1" stroke="none" stroke-width="1" fill="none" fill-rule="evenodd">
        <g id="排课-课次列表为空" transform="translate(-1202.000000, -303.000000)" fill="#DDDDDD">
            <g id="icon/异常/空" transform="translate(1190.000000, 303.000000)">
                <path d="M16.0027785,0 L103.997221,0 C106.207895,0 108,1.78946078 108,3.99261475 L108,116.007385 C108,118.212445 106.210123,120 103.997221,120 L16.0027785,120 C13.792105,120 12,118.210539 12,116.007385 L12,3.99261475 C12,1.78755451 13.7898769,0 16.0027785,0 Z M14,116.007385 C14,117.105636 14.8963449,118 16.0027785,118 L103.997221,118 C105.105749,118 106,117.107677 106,116.007385 L106,3.99261475 C106,2.89436376 105.103655,2 103.997221,2 L16.0027785,2 C14.894251,2 14,2.89232339 14,3.99261475 L14,116.007385 Z" id="Rectangle-8-Copy-2"></path>
                <circle id="Oval-3-Copy-2" cx="34" cy="90" r="3"></circle>
                <rect id="Rectangle-10-Copy-2" x="43" y="89" width="46" height="2"></rect>
                <circle id="Oval-3-Copy-2" cx="34" cy="70" r="3"></circle>
                <rect id="Rectangle-10-Copy-2" x="43" y="69" width="46" height="2"></rect>
                <circle id="Oval-3-Copy" cx="34" cy="50" r="3"></circle>
                <rect id="Rectangle-10-Copy" x="43" y="49" width="46" height="2"></rect>
                <circle id="Oval-3" cx="34" cy="30" r="3"></circle>
                <rect id="Rectangle-10" x="43" y="29" width="46" height="2"></rect>
            </g>
        </g>
    </g>
</svg>