<?xml version="1.0" encoding="utf-8"?>
<!-- Generator: Adobe Illustrator 18.0.0, SVG Export Plug-In . SVG Version: 6.00 Build 0)  -->
<!DOCTYPE svg PUBLIC "-//W3C//DTD SVG 1.1//EN" "http://www.w3.org/Graphics/SVG/1.1/DTD/svg11.dtd">
<svg version="1.1" id="Layer_1" xmlns="http://www.w3.org/2000/svg" xmlns:xlink="http://www.w3.org/1999/xlink" x="0px" y="0px"
	 viewBox="-507 -507 1024 1024" enable-background="new -507 -507 1024 1024" xml:space="preserve">
<path d="M22.9-463.3c-255.4,3.5-459.6,213.2-456.3,468.6c3.5,255.2,213.2,459.5,468.6,456.1c255.2-3.5,459.6-213.2,456.1-468.6
	C487.9-262.5,278.2-466.7,22.9-463.3z M21.5,280.4H19c-39.3-1.2-67-30.1-66-68.9c1.2-38.1,29.6-65.8,67.7-65.8l2.3,0.1
	c40.3,1.2,67.8,30,66.7,69.8C88.4,253.6,60.5,280.4,21.5,280.4z M187-47.8c-9.3,13.1-29.7,29.4-55.2,49.4l-28.3,19.5
	C88,33.2,78.7,44.5,75.2,55.5c-2.8,8.9-4.1,11.1-4.3,29L70.7,89H-37l0.4-9.1c1.3-37.5,2.2-59.6,17.7-77.7
	C5.5-26.3,59.3-61,61.5-62.4c7.7-5.9,14.2-12.5,19-19.4c11.3-15.6,16.3-27.9,16.3-40c0-16.6-5-32.1-14.9-45.9
	c-9.3-13.4-27.3-20.1-53.2-20.1c-25.8,0-43.4,8.2-53.9,24.9c-10.9,17.4-16.3,35.3-16.3,53.9v4.6h-111.1l0.2-4.9
	c2.9-68.1,27.2-117,72.2-145.5c28.2-18.2,63.4-27.5,104.4-27.5c53.7,0,99.2,13,134.9,38.7c36.2,26.1,54.5,65.2,54.5,116.1
	C213.6-98.8,204.5-72.1,187-47.8L187-47.8z"/>
</svg>
