<?xml version="1.0" encoding="utf-8"?>
<!-- Generator: Adobe Illustrator 18.0.0, SVG Export Plug-In . SVG Version: 6.00 Build 0)  -->
<!DOCTYPE svg PUBLIC "-//W3C//DTD SVG 1.1//EN" "http://www.w3.org/Graphics/SVG/1.1/DTD/svg11.dtd">
<svg version="1.1" id="Layer_1" xmlns="http://www.w3.org/2000/svg" xmlns:xlink="http://www.w3.org/1999/xlink" x="0px" y="0px"
	 viewBox="-506 -504 1024 1024" enable-background="new -506 -504 1024 1024" xml:space="preserve">
<path fill="#FF0000" d="M71.5-188C42.9-250,2.2-304.9-49.4-351.4l-0.9-0.8c-8.9-7.1-22.8-16.6-42.6-16.6c-31,0-56.1,24.2-56.1,54
	c0,27.2,18.2,37.9,35.8,48.1c0.5,0.3,1.1,0.7,1.7,1C-34.6-190.2,7.8-90.9,7.8,14.2c0,103.6-41.3,202-116.3,277
	c-1.2,0.9-3.2,2.3-5.1,3.6c-13.2,9.3-35.4,24.8-35.4,49.8c0,29.8,25.2,54,56.1,54c28.7,0,57-27.7,64.8-37.2
	c93-93.8,144.1-216.7,144.1-346.2C116.1-55.5,101.1-123.8,71.5-188z"/>
<path fill="#FF0000" d="M-260.4-224.5l-1.8-1.4l-2.2-1c-10.7-5.1-20.2-7.5-30-7.5c-3.8,0-7,0.4-9.6,0.6c-0.7,0.1-1.5,0.2-2.2,0.2
	c-27.8,2.6-46.5,24.2-46.5,53.9c0,24.5,14.7,34.5,28.9,44.3c3.5,2.4,7.2,4.9,11.2,7.9c40.3,38,62.4,88.5,62.4,142.3
	c0,51.7-20.8,100.7-58.5,138.3c-4.3,2.6-8.2,4.6-12,6.6c-14.3,7.4-32.2,16.6-32.2,42.7c0,29.8,25.2,54,56.1,54
	c21.5,0,40.4-7.2,56.4-21.4l0.2-0.2c30.9-28.2,55.3-61.4,72.3-98.7C-150,97.6-141,56.4-141,13.8C-141-79.2-184.5-166.1-260.4-224.5z
	"/>
<path fill="#FF0000" d="M332.1-241.5c-27.6-75.9-67.6-146.8-119-210.7c-14.5-21.9-32.7-33-54.2-33c-30.4,0-53.2,22.8-53.2,52.9
	c0,19.2,9.7,30.8,19.1,42.1l0.9,1c43.6,55,77.5,115.9,100.9,180.9c24.2,67.5,36.4,138.1,36.4,210.1c0,72.6-12.4,143.8-37,211.8
	c-23.7,65.5-58.1,126.7-102.4,181.9c-8.7,10-13.5,22.6-13.5,35.4c0,30.4,25.7,55.3,57.4,55.3c23.1,0,43.8-13.4,52.8-33.8
	c49.1-62.9,87.2-132.3,113.6-206.3c27.6-77.6,41.7-158.9,41.7-241.5C375.3-79.7,360.8-162.5,332.1-241.5z"/>
</svg>
