<?xml version="1.0" encoding="utf-8"?>
<!-- Generator: Adobe Illustrator 18.0.0, SVG Export Plug-In . SVG Version: 6.00 Build 0)  -->
<!DOCTYPE svg PUBLIC "-//W3C//DTD SVG 1.1//EN" "http://www.w3.org/Graphics/SVG/1.1/DTD/svg11.dtd">
<svg version="1.1" id="图层_1" xmlns="http://www.w3.org/2000/svg" xmlns:xlink="http://www.w3.org/1999/xlink" x="0px" y="0px"
	 viewBox="-496 -496 1024 1024" enable-background="new -496 -496 1024 1024" xml:space="preserve">
<path fill="#555555" d="M-121.6,50.1c-79,0-141.1-62.1-141.1-141.1s62.1-141.1,141.1-141.1S19.5-170,19.5-91S-42.6,50.1-121.6,50.1z
	 M-121.6-175.7c-48,0-84.7,36.7-84.7,84.7s36.7,84.7,84.7,84.7S-36.9-43.1-36.9-91S-73.6-175.7-121.6-175.7z"/>
<path fill="#555555" d="M19.5,281.5L-5.9,129.1l-67.7-22.6l16.9-53.6L44.9,86.7l31,186.2L19.5,281.5z"/>
<path fill="#555555" d="M-262.7,281.5l-56.4-8.5l31-186.2l101.6-33.9l16.9,53.6l-67.7,22.6L-262.7,281.5z"/>
<path fill="#555555" d="M132.4-175.7h112.9v56.4H132.4V-175.7z"/>
<path fill="#555555" d="M132.4-62.8h225.8v56.4H132.4V-62.8z"/>
<path fill="#555555" d="M132.4,50.1h225.8v56.4H132.4V50.1z"/>
<path fill="#555555" d="M132.4,162.9h225.8v56.4H132.4V162.9z"/>
<path fill="#555555" d="M-121.6,332.2h282.2v56.4h-282.2V332.2z"/>
<path fill="#555555" d="M471,388.7H217v-56.4h197.5v-620.8h-790.1v620.8H-178v56.4h-254V-345h903V388.7z"/>
</svg>
