<?xml version="1.0" encoding="utf-8"?>
<!-- Generator: Adobe Illustrator 18.0.0, SVG Export Plug-In . SVG Version: 6.00 Build 0)  -->
<!DOCTYPE svg PUBLIC "-//W3C//DTD SVG 1.1//EN" "http://www.w3.org/Graphics/SVG/1.1/DTD/svg11.dtd">
<svg version="1.1" id="图层_1" xmlns="http://www.w3.org/2000/svg" xmlns:xlink="http://www.w3.org/1999/xlink" x="0px" y="0px"
	 viewBox="-496.2 -496 1024 1024" enable-background="new -496.2 -496 1024 1024" xml:space="preserve">
<path fill="#919EB3" d="M-18.5,147.6h-147.8V88.5h88.7V-148h-147.8v-59.1h207V147.6z"/>
<path fill="#919EB3" d="M484.2,336.9L-56.9,144.7l20.7-56.2L425,254.1v-567.7L-39.2-151l-20.7-56.2l544-189.2V336.9z"/>
<path fill="#919EB3" d="M327.5-216l20.7,56.2L82-62.3l-20.7-56.2L327.5-216z"/>
<path fill="#919EB3" d="M-284.6,147.6H-462v-354.8h177.4V147.6z M-402.9,88.5h59.1V-148h-59.1V88.5z"/>
<path fill="#919EB3" d="M-225.5,443.3c-65,0-118.3-53.2-118.3-118.3V206.8h59.1v118.3c0,32.5,26.6,59.1,59.1,59.1
	s59.1-26.6,59.1-59.1V206.8h118.3v59.1h-59.1v59.1C-107.2,390.1-160.4,443.3-225.5,443.3z"/>
</svg>
