<?xml version="1.0" encoding="UTF-8" standalone="no"?>
<svg width="13px" height="13px" viewBox="0 0 13 13" version="1.1" xmlns="http://www.w3.org/2000/svg" xmlns:xlink="http://www.w3.org/1999/xlink">
    <!-- Generator: Sketch 39.1 (31720) - http://www.bohemiancoding.com/sketch -->
    <title>icon-展开课表</title>
    <desc>Created with Sketch.</desc>
    <defs></defs>
    <g id="Page-1" stroke="none" stroke-width="1" fill="none" fill-rule="evenodd">
        <g id="课表-默认" transform="translate(-692.000000, -488.000000)" fill="#999999">
            <path d="M704.94979,500.550105 C704.936307,500.431678 704.922958,500.313265 704.909315,500.194852 C704.857543,499.745286 704.80537,499.295761 704.753931,498.846155 C704.707527,498.440608 704.663256,498.034808 704.615334,497.629448 C704.586943,497.389397 704.553502,497.149972 704.521607,496.910348 C704.518103,496.884115 704.511282,496.858029 704.503289,496.832743 C704.427868,496.593957 704.240962,496.532286 704.038788,496.681648 C703.983672,496.722376 703.933045,496.769805 703.883697,496.817608 C703.69871,496.9968 703.515441,497.17779 703.33088,497.357422 C703.132702,497.55031 703.031222,497.560356 702.81013,497.394047 C702.713073,497.321038 702.62485,497.235239 702.538118,497.149653 C701.804883,496.42605 701.073646,495.700409 700.339265,494.977965 C700.277007,494.916707 700.199016,494.869717 700.123582,494.823926 C699.923166,494.702316 699.730012,494.736675 699.566541,494.88717 C699.323333,495.111033 699.087732,495.343757 698.858353,495.581822 C698.705207,495.74079 698.698972,495.957886 698.833226,496.143513 C698.908233,496.247218 698.995085,496.343955 699.08608,496.434257 C699.836275,497.178696 700.588868,497.920685 701.340009,498.664165 C701.395086,498.718669 701.448617,498.775717 701.495713,498.837096 C701.595901,498.967673 701.592157,499.065289 701.480645,499.187939 C701.347723,499.334117 701.210458,499.476325 701.074912,499.620105 C700.946959,499.755811 700.816942,499.889599 700.691174,500.027277 C700.472134,500.267075 700.534351,500.502556 700.850036,500.583012 C701.035742,500.630362 701.230296,500.64503 701.421638,500.667865 C701.837963,500.71752 702.254728,500.763403 702.671413,500.810033 C703.132183,500.861606 703.592966,500.913072 704.053936,500.962859 C704.197236,500.978327 704.34099,500.991037 704.484876,500.999178 C704.543963,501.002508 704.604848,500.995354 704.663309,500.984376 C704.82265,500.954439 704.921692,500.838424 704.935454,500.674407 C704.938199,500.641686 704.944927,500.609298 704.949816,500.576764 C704.94979,500.567864 704.94979,500.558991 704.94979,500.550105 L704.94979,500.550105 Z M692,488.452976 C692.013483,488.571403 692.026832,488.689829 692.040475,488.808243 C692.092261,489.257835 692.144433,489.707374 692.195886,490.157006 C692.242289,490.562553 692.286547,490.96838 692.334483,491.373753 C692.362874,491.613804 692.396314,491.853255 692.428222,492.09288 C692.431713,492.119112 692.438574,492.145185 692.446568,492.170472 C692.522082,492.40927 692.708894,492.470742 692.911175,492.321366 C692.964533,492.281957 693.013707,492.23626 693.061456,492.190003 C693.248016,492.009226 693.432897,491.82669 693.61907,491.645512 C693.817074,491.452824 693.918847,491.442806 694.13986,491.609154 C694.236903,491.682203 694.325127,491.768016 694.411845,491.853602 C695.143495,492.575739 695.873093,493.299928 696.605915,494.020853 C696.669758,494.083657 696.749322,494.132285 696.826594,494.179248 C697.026996,494.301059 697.220151,494.266126 697.383569,494.115658 C697.626724,493.891741 697.862418,493.659071 698.091717,493.420926 C698.244796,493.261918 698.250698,493.044849 698.116284,492.859209 C698.041223,492.755544 697.954372,492.658807 697.863364,492.568505 C697.114727,491.825597 696.363733,491.085061 695.613977,490.343299 C695.563577,490.293445 695.51371,490.242219 695.469864,490.186689 C695.349253,490.03393 695.352184,489.941656 695.482707,489.799621 C695.613404,489.6574 695.747339,489.518163 695.879914,489.377674 C696.006401,489.243633 696.13486,489.11143 696.259082,488.975324 C696.477803,488.735673 696.415012,488.500152 696.099075,488.419909 C695.913301,488.372733 695.718788,488.357944 695.527419,488.335229 C695.11545,488.286321 694.703002,488.24153 694.290701,488.195379 C693.825507,488.143314 693.360261,488.091834 692.895108,488.039569 C692.787579,488.027445 692.68029,488.013243 692.572882,488 L692.373039,488 C692.354068,488.004743 692.335349,488.011458 692.316084,488.013922 C692.140742,488.036345 692.028777,488.153506 692.014335,488.329234 C692.011657,488.361768 692.004889,488.393969 692,488.426331 L692,488.452976 L692,488.452976 Z" id="icon-展开课表" transform="translate(698.474908, 494.500000) scale(-1, 1) translate(-698.474908, -494.500000) "></path>
        </g>
    </g>
</svg>