<?xml version="1.0" standalone="no"?> 
<!DOCTYPE svg PUBLIC "-//W3C//DTD SVG 1.1//EN" "http://www.w3.org/Graphics/SVG/1.1/DTD/svg11.dtd" >
<svg xmlns="http://www.w3.org/2000/svg">
<defs>
  <font id="webfont" horiz-adv-x="1024">
    <font-face font-family="Txicons"
      units-per-em="1024" ascent="1024"
      descent="0" />
    <missing-glyph horiz-adv-x="0" />
    <glyph glyph-name="address"
      unicode="&#xEA01;"
      horiz-adv-x="14" d=" M6.32917961 1.3416408C6.85496168 1.6045318 8.52526564 2.9470863 9.789399 4.2728711C11.5004971 6.06741904 12.5 7.77192211 12.5 9C12.5 12.03756612 10.0375661 14.5 7 14.5C3.96243388 14.5 1.5 12.03756612 1.5 9C1.5 7.77192211 2.49950289 6.06741904 4.21060102 4.2728711C5.47473436 2.9470863 7.14503832 1.6045318 7.67082039 1.3416408L7 0L6.32917961 1.3416408zM0 9C0 12.86599325 3.13400675 16 7 16C10.8659932 16 14 12.86599325 14 9C14 5.1340068 8 0.5 7 0C6 0.5 0 5.1340068 0 9z M8.5 9C8.5 9.82842712 7.82842712 10.5 7 10.5C6.17157288 10.5 5.5 9.82842712 5.5 9C5.5 8.17157288 6.17157288 7.5 7 7.5C7.82842712 7.5 8.5 8.17157288 8.5 9zM4 9C4 10.65685425 5.34314575 12 7 12C8.65685425 12 10 10.65685425 10 9C10 7.34314575 8.65685425 6 7 6C5.34314575 6 4 7.34314575 4 9z" />
    <glyph glyph-name="calendar"
      unicode="&#xEA02;"
      horiz-adv-x="1024" d=" M938.688 928H800V992C800 1009.696 785.696 1024 768 1024S736 1009.696 736 992V928H544V992C544 1009.696 529.664 1024 512 1024S480 1009.696 480 992V928H288V992C288 1009.696 273.664 1024 256 1024S224 1009.696 224 992V928H85.344C38.208 928 0 889.8240000000001 0 842.688V85.3439999999999C0 38.208 38.208 0 85.344 0H938.6880000000002C985.824 0 1024 38.208 1024 85.3440000000001V842.6880000000001C1024 889.8240000000001 985.824 928.0000000000002 938.688 928.0000000000002zM960 85.3440000000001C960 73.5680000000001 950.432 64 938.688 64H85.3439999999999C73.5679999999999 64 63.9999999999999 73.568 63.9999999999999 85.3440000000001V842.6880000000001C63.9999999999999 854.4320000000001 73.5679999999999 864.0000000000001 85.3439999999999 864.0000000000001H224V800.0000000000001C224 782.3040000000001 238.336 768.0000000000001 256 768.0000000000001S288 782.3040000000001 288 800.0000000000001V864.0000000000001H479.9999999999999V800.0000000000001C479.9999999999999 782.3040000000001 494.336 768.0000000000001 511.9999999999999 768.0000000000001S544 782.3040000000001 544 800.0000000000001V864.0000000000001H736V800.0000000000001C736 782.3040000000001 750.304 768.0000000000001 768 768.0000000000001S800 782.3040000000001 800 800.0000000000001V864.0000000000001H938.688C950.432 864.0000000000001 960 854.4320000000001 960 842.6880000000001V85.3440000000001zM224 640H352V544H224zM224 480H352V384H224zM224 320H352V224H224zM448 320H576V224H448zM448 480H576V384H448zM448 640H576V544H448zM672 320H800V224H672zM672 480H800V384H672zM672 640H800V544H672z" />
    <glyph glyph-name="camera"
      unicode="&#xEA03;"
      horiz-adv-x="1024" d=" M835 704H711.6C647.4010000000001 776 627.201 800 602.6 800H425.6C401 800 381.201 776 316.6 704H290V736H222V704H195C159.8 704 128 677.6 128 642.6V290.6C128 255.6 159.8 224 195 224H835C870.2 224 896 255.6 896 290.6V642.6C896 677.6 870.2 704 835 704zM864 290.6C864 272 851.6 256 835 256H195C177.6 256 160 273.4 160 290.6V642.6C160 659 176.2 672 195 672H316.4H330.6L340.201 678.4C348.201 687.4 355.6 698.4 362.401 706C385.0010000000001 731.4 401.401 749.4 413.0010000000001 759.8C422.401 768.2 425.401 768 425.401 768H602.4010000000001C602.4010000000001 768 605.6 768.2 615.8000000000001 759C628.0000000000001 748 645.2 726 669.0000000000001 699.4C674.8000000000001 692.8 681.0000000000001 685.8 687.6000000000001 678.4L697.2010000000001 672H711.6H835C852.6 672 864 660 864 642.6V290.6zM512 645C417.8 645 341 568.2 341 474S417.8 303 512 303S683 379.8 683 474S606.2 645 512 645zM512 335C435.2 335 373 397.2000000000001 373 474S435.2 613 512 613S651 550.8 651 474S588.8 335 512 335zM704 640H738V606H704V640zM448 474C448 509.347 476.653 538 512 538S576 509.347 576 474S547.347 410 512 410S448 438.653 448 474z" />
    <glyph glyph-name="caret-down"
      unicode="&#xEA04;"
      horiz-adv-x="1024" d=" M768 640L512 384L256 640z" />
    <glyph glyph-name="cash1"
      unicode="&#xEA05;"
      horiz-adv-x="1024" d=" M929.1 437.8000000000001L556.5 70.4000000000001C546 59.9000000000001 535.5 59.9000000000001 525 59.9000000000001S504 65.1 493.5 70.4000000000001L121 437.8000000000001C105.3 448.3000000000001 105.3 469.3000000000001 110.5 485C115.7 500.7 131.5 511.2 152.5 511.2H273.2V904.8C273.2 931 294.2 946.8 320.4 946.8H740.2C766.4 946.8 787.4 925.8 787.4 904.8V511.3000000000001H897.5999999999999C918.6 511.3000000000001 934.3 500.8000000000001 939.6 485.1C944.9 469.3000000000001 939.6 453.5 929.1 437.8000000000001zM651 731.7L630 747.4C624.8 752.6 614.3 747.4 614.3 742.2L530.3 632L446.3 742.2C441.1 747.4 435.8 747.4 430.6 747.4L409.6 731.7C404.4 726.5 404.4 721.2 404.4 716L477.9 621.5H435.9C430.7 621.5 425.4 616.3 425.4 611V590C425.4 584.8 430.6 579.5 435.9 579.5H509.3V516.5H435.8C430.6 516.5 425.3 511.3000000000001 425.3 506V485C425.3 479.8000000000001 430.5 474.5 435.8 474.5H509.3V401.1C509.3 395.9 514.5 390.6 519.8 390.6H540.8C546 390.6 551.3 395.8000000000001 551.3 401.1V474.5H624.8C630 474.5 635.3 479.7 635.3 485V506C635.3 511.2 630.1 516.5 624.8 516.5H551.3V579.5H624.8C630 579.5 635.3 584.7 635.3 590V611C635.3 616.2 630.1 621.5 624.8 621.5H582.8L656.3 716C661.5 721.2 661.5 726.4000000000001 651 731.7z" />
    <glyph glyph-name="check-nocircle"
      unicode="&#xEA06;"
      horiz-adv-x="1024" d=" M21.333 2636V2636zM42.667 2636V2636zM64 2636V2636zM85.333 2636V2636zM106.667 2636V2636zM128 2636V2636zM149.333 2636V2636zM170.667 2636V2636zM192 2636V2636zM213.333 2636V2636zM234.667 2636V2636zM256 2636V2636zM277.3330000000001 2636V2636zM298.667 2636V2636zM320 2636V2636zM341.3330000000001 2636V2636zM362.667 2636V2636zM384 2636V2636zM405.3330000000001 2636V2636zM426.667 2636V2636zM448 2636V2636zM469.333 2636V2636zM490.667 2636V2636zM512 2636V2636zM533.333 2636V2636zM554.667 2636V2636zM576 2636V2636zM597.333 2636V2636zM618.667 2636V2636zM640 2636V2636zM661.333 2636V2636zM682.667 2636V2636zM704 2636V2636zM725.333 2636V2636zM746.667 2636V2636zM768 2636V2636zM789.333 2636V2636zM810.667 2636V2636zM832 2636V2636zM853.333 2636V2636zM874.667 2636V2636zM896 2636V2636zM917.333 2636V2636zM938.667 2636V2636zM960 2636V2636zM981.333 2636V2636zM1002.667 2636V2636zM0 2614.667V2614.667zM0 2593.333V2593.333zM0 2572V2572zM0 2550.667V2550.667zM0 2529.333V2529.333zM0 2508V2508zM0 2486.667V2486.667zM0 2465.333V2465.333zM0 2444V2444zM0 2422.667V2422.667zM0 2401.333V2401.333zM0 2380V2380zM0 2358.667V2358.667zM0 2337.333V2337.333zM0 2316V2316zM0 2294.667V2294.667zM0 2273.333V2273.333zM0 2252V2252zM0 2230.667V2230.667zM0 2209.333V2209.333zM0 2188V2188zM0 2166.667V2166.667zM0 2145.333V2145.333zM0 2124V2124zM0 2102.667V2102.667zM0 2081.333V2081.333zM0 2060V2060zM0 2038.667V2038.667zM0 2017.333V2017.333zM0 1996V1996zM0 1974.667V1974.667zM0 1953.333V1953.333zM0 1932V1932zM0 1910.667V1910.667zM0 1889.333V1889.333zM0 1868V1868zM0 1846.667V1846.667zM0 1825.333V1825.333zM0 1804V1804zM0 1782.667V1782.667zM0 1761.333V1761.333zM0 1740V1740zM0 1718.667V1718.667zM0 1697.333V1697.333zM0 1676V1676zM0 1654.667V1654.667zM0 1633.333V1633.333zM896 2422.667Q914.333 2422.667 926.5 2410.5T938.667 2380Q938.667 2362 926.334 2349.667L414.3340000000001 1837.667Q402.0010000000001 1825.334 384.0010000000001 1825.334T353.6680000000001 1837.667L97.6680000000001 2093.667Q85.3350000000001 2106 85.3350000000001 2124Q85.3350000000001 2142.333 97.5020000000001 2154.5T128.0020000000001 2166.667Q146.0020000000001 2166.667 158.3350000000001 2154.334L384.0020000000001 1928.334L865.6690000000001 2410.334Q878.0020000000001 2422.667 896.0020000000001 2422.667z" />
    <glyph glyph-name="check-o"
      unicode="&#xEA07;"
      horiz-adv-x="1024" d=" M512 1624C648.752 1624 777.328 1677.2640000000001 874.0160000000001 1773.9679999999998C970.736 1870.672 1024 1999.248 1024 2136S970.736 2401.328 874.032 2498.016C777.328 2594.736 648.752 2648 512 2648S246.672 2594.736 149.984 2498.032C53.264 2401.328 0 2272.752 0 2136S53.264 1870.672 149.968 1773.984C246.672 1677.2640000000001 375.248 1624 512 1624zM195.232 2452.768C279.84 2537.392 392.336 2584 512 2584S744.16 2537.392 828.768 2452.768C913.392 2368.16 960 2255.6639999999998 960 2136S913.392 1903.84 828.768 1819.232C744.16 1734.608 631.664 1688 512 1688S279.8400000000001 1734.608 195.232 1819.232C110.608 1903.84 64 2016.336 64 2136S110.608 2368.16 195.232 2452.768zM382.992 1880C383.3280000000001 1880 383.6640000000001 1880 384 1880C392.688 1880 401.024 1883.536 407.072 1889.824L807.072 2305.824C819.312 2318.5600000000004 818.928 2338.816 806.176 2351.072C793.4240000000001 2363.3280000000004 773.1840000000001 2362.9120000000003 760.928 2350.1760000000004L385.52 1959.744L232.432 2140.672C221.008 2154.176 200.816 2155.8559999999998 187.328 2144.432C173.84 2133.0240000000003 172.16 2112.816 183.568 2099.328L359.568 1891.328C365.424 1884.4 373.936 1880 382.992 1880z" />
    <glyph glyph-name="check"
      unicode="&#xEA08;"
      horiz-adv-x="1024" d=" M512.222609 2625.73913C241.7530440000001 2625.73913 22.483479 2406.469565 22.483479 2136S241.7530440000001 1646.26087 512.222609 1646.26087S1001.961739 1865.530435 1001.961739 2136S782.692174 2625.73913 512.222609 2625.73913zM814.592 2306.451478L471.596522 1942.018783C465.051826 1935.073392 456.192 1931.511653 447.265392 1931.511653C439.8080010000001 1931.511653 432.328349 1933.98261 426.1398270000001 1939.058088L190.330435 2131.993043C176.061218 2143.68 173.946435 2164.716521 185.633392 2178.9857389999997C197.320349 2193.277217 218.334609 2195.3697389999998 232.626088 2183.682782L444.326958 2010.470956L765.952001 2352.219826C778.640697 2365.687652 799.744001 2366.266435 813.1673049999999 2353.644522C826.568348 2341.000348 827.213913 2319.874783 814.592 2306.451478z" />
    <glyph glyph-name="check1"
      unicode="&#xEA09;"
      horiz-adv-x="200" d=" M180.790923828125 175.4288591796875C180.790923828125 175.4288591796875 147.6531912109375 154.762870703125 120.791403515625 129.380280078125C93.5496734375 103.63753359375 72.6240609375 73.138412109375 72.6240609375 73.138412109375L31.4519755859375 107.7549421875L14.603398828125 91.666050390625L81.99770546875 24.571340625C81.99770546875 24.571340625 107.2204044921875 68.2819048828125 136.2609150390625 106.1160533203125C158.6859109375 135.3162556640625 186.6267669921875 160.8589376953125 186.6267669921875 160.8589376953125L180.790923828125 175.4288591796875z" />
    <glyph glyph-name="chenggong"
      unicode="&#xEA0A;"
      horiz-adv-x="1024" d=" M127.1 198.5C100.9 198.5 80.2 219.2000000000001 80.2 245.4V735.8C80.2 762 100.9 782.6999999999999 127.1 782.6999999999999H852.8999999999999C879.0999999999999 782.6999999999999 899.8 762 899.8 735.8V626.8C920.4999999999998 613.6999999999999 940.1 598.5 958.6 581V796.8C958.6 867.5999999999999 893.1999999999999 861.0999999999999 893.1999999999999 861.0999999999999S505.1999999999999 861.0999999999999 525.8999999999999 861.0999999999999C504.0999999999999 860 493.1999999999999 873.0999999999999 493.1999999999999 873.0999999999999S477.8999999999999 899.3 449.5999999999999 941.8C420.2 985.4 386.3999999999999 978.9 386.3999999999999 978.9H101.9999999999999C22.4 978.9 21.4 902.6 21.4 902.6V214.8999999999999C21.4 129.8999999999999 85.7 140.8 85.7 140.8H441C427.9 159.3 417 177.9 408.3 198.5999999999999H127.1zM719.9 625.7C570.6 625.7 449.7 504.6999999999999 449.7 355.4S571.8 85.0999999999999 721.0999999999999 85.0999999999999C869.3 85.0999999999999 991.4 206.0999999999999 991.4 355.4S870.3 625.7 719.9 625.7zM899.8 440.4L686.2 225.7000000000001C674.2 213.7000000000001 654.6 213.7000000000001 641.5 225.7000000000001L541.1999999999999 326C529.1999999999999 338 529.1999999999999 358.7000000000001 541.1999999999999 370.7000000000001C553.1999999999999 382.7000000000001 572.8 382.7000000000001 585.9 370.7000000000001L663.3 292.2000000000001L855.0999999999999 485.1C867.0999999999999 497.1 886.7 497.1 899.8 485.1C911.8 473.1 911.8 453.5 899.8 440.4z" />
    <glyph glyph-name="cny"
      unicode="&#xEA0B;"
      horiz-adv-x="1024" d=" M563.232 1715.6190000000001H464.928Q457.504 1715.6190000000001 452.055 1720.776T446.642 1733.9050000000002V1922.467H282.0710000000001Q274.6470000000001 1922.467 269.1980000000001 1927.6240000000005T263.7850000000001 1940.753V1999.596Q263.7850000000001 2007.02 269.1980000000001 2012.469T282.0710000000001 2017.882H446.6420000000001V2066.449H282.0710000000001Q274.6470000000001 2066.449 269.1980000000001 2071.6059999999998T263.7850000000001 2084.7349999999997V2144.1639999999998Q263.7850000000001 2151.5879999999997 269.1980000000001 2157.0370000000003T282.0710000000001 2162.45H404.3660000000001L220.924 2492.727Q216.353 2501.87 220.924 2511.013Q226.6290000000001 2520.156 236.9420000000001 2520.156H347.79Q358.6520000000001 2520.156 364.3570000000001 2509.879L487.2 2267.008Q498.0620000000001 2245.285 519.2 2195.584Q524.9050000000001 2209.298 536.6450000000001 2234.423T552.3710000000001 2269.276L661.5000000000001 2509.294Q666.0710000000001 2520.156 678.0670000000001 2520.156H787.1960000000001Q796.9240000000001 2520.156 802.6290000000001 2511.013Q807.7860000000002 2503.004 803.2140000000002 2493.312L624.3430000000002 2162.45H747.1860000000001Q754.6100000000001 2162.45 760.0590000000002 2157.0370000000003T765.4720000000002 2144.1639999999998V2084.7349999999997Q765.4720000000002 2076.7259999999997 760.0590000000002 2071.6059999999998T747.1860000000001 2066.449H581.4810000000001V2017.882H747.1860000000001Q754.6100000000001 2017.882 760.0590000000002 2012.469T765.4720000000002 1999.596V1940.753Q765.4720000000002 1932.744 760.0590000000002 1927.624T747.1860000000001 1922.467H581.4810000000001V1733.905Q581.4810000000001 1726.481 576.0680000000001 1721.032T563.195 1715.619z" />
    <glyph glyph-name="crm"
      unicode="&#xEA0C;"
      horiz-adv-x="1024" d=" M444.4000000000001 863C215.3 863 27.9 675.6 27.9 446.5S215.3000000000001 30 444.4000000000001 30S860.9000000000001 217.4 860.9000000000001 446.5H444.4000000000001C444.4000000000001 446.5 444.4000000000001 863 444.4000000000001 863zM533.6 982H503.9V506H979.9V535.7C979.9 764.8 762.7 982 533.6 982z" />
    <glyph glyph-name="dai"
      unicode="&#xEA0D;"
      horiz-adv-x="1024" d=" M512 1662.053688C782.006504 1662.053688 1000.866117 1880.913301 1000.866117 2150.919805S782.006504 2639.784898 512 2639.784898S23.133883 2420.926308 23.133883 2150.9187810000003S241.993496 1662.053688 512 1662.053688zM512 2548.122245C731.378429 2548.122245 909.203464 2370.2972099999997 909.203464 2150.9187810000003S731.378429 1753.7153170000001 512 1753.7153170000001S114.796536 1931.540352 114.796536 2150.9187810000003S292.621571 2548.122245 512 2548.122245zM389.783471 1967.594499C389.783471 2035.088706 444.5057930000001 2089.811028 512 2089.811028S634.216529 2035.088706 634.216529 1967.594499S579.4942070000001 1845.37797 512 1845.37797S389.783471 1900.100292 389.783471 1967.594499zM634.216529 2303.6902099999998C634.216529 2354.318284 661.5623410000001 2395.352863 695.324282 2395.352863S756.432035 2354.318284 756.432035 2303.6902099999998S729.086223 2212.027557 695.324282 2212.027557S634.216529 2253.0611129999998 634.216529 2303.6902099999998zM267.566942 2303.6902099999998C267.566942 2354.318284 294.912754 2395.352863 328.674695 2395.352863S389.782448 2354.318284 389.782448 2303.6902099999998S362.436636 2212.027557 328.674695 2212.027557S267.566942 2253.0611129999998 267.566942 2303.6902099999998z" />
    <glyph glyph-name="dangan"
      unicode="&#xEA0E;"
      horiz-adv-x="1024" d=" M942.8 507.6C927.5 510.7 912.1 498.4 909.1 483.1C884.5 302 740.3 157.8 559.3 133.3C544 130.2000000000001 531.7 118 534.8 99.6C537.9 84.3 550.1 75.1 562.4 75.1H565.5C771 102.6 936.6 265.2000000000001 964.3 473.8C970.4 492.2 958.1 507.6 942.8 507.6zM451.9 136.3C270.9 160.9 129.8 302 105.2 483C102.1 498.3 89.9 510.6 71.5 507.5C56.2 507.5 43.9 492.2 47 476.8C74.5 271.3 237.1 105.7000000000001 445.8 78H448.9C464.2 78 476.5 87.2000000000001 476.5 102.5C479.5 117.9 470.3 133.3 451.9 136.3zM71.5 568.9H74.6C89.9 568.9 102.2000000000001 578.1 102.2000000000001 593.4C129.8000000000001 774.4 270.9000000000001 915.5 452.0000000000001 940.1C467.3000000000001 943.2 479.6000000000001 955.4 476.5000000000001 973.8C476.5000000000001 989.1 461.2 1001.4 445.8000000000001 998.3C237.2000000000001 970.7 74.6000000000001 808.1 47.0000000000001 599.5C43.8 584.3 56.1 568.9 71.5 568.9zM562.3 940.2C743.3 915.7 887.5 771.5 912.1 590.4C915.2 575.0999999999999 927.4 565.9 939.7 565.9H942.8C958.1000000000003 569 970.4 581.2 967.3 599.5999999999999C939.7 808.2 777.1 970.8 568.5 998.4C553.2 1001.5 537.8 989.2 534.8 973.9C534.7 958.6 543.9 943.2 562.3 940.2zM562.3 375.6C565.4 375.6 568.4 375.6 574.6 378.7000000000001C614.5 397.1 648.2 427.8 666.6 470.7C672.7 486 666.6 501.4 651.3 507.5S620.6 507.5 614.5 492.2C602.2 464.6 580.8 443.1 553.1 430.8C537.8 424.7000000000001 531.6 406.3 537.8 394C540.9 381.8 553.1 375.6 562.3 375.6zM461.1 430.9C433.5 443.1 412 464.6 399.7 492.2C393.6 507.5 375.2 513.7 362.9 507.5C347.6 501.4 341.4 483 347.6 470.7C366 430.8 396.7 397.1 439.6 378.7000000000001C442.7 375.6 448.8 375.6 451.9 375.6C464.2 375.6 473.4 381.7000000000001 479.5 394C482.6 409.4 476.4 424.7000000000001 461.1 430.9zM439.6 697.8C399.7 679.4 366 648.7 347.6 605.8C341.5 590.5 347.6 575.1 362.9 569C366 565.9000000000001 372.1 565.9000000000001 375.2 565.9000000000001C387.5 565.9000000000001 396.7 572 402.8 584.3C415.1 611.9 436.5 633.4 464.2 645.7C479.5 651.8 485.7 670.2 479.5 682.5C470.3 697.8 455 703.9 439.6 697.8zM553.1 645.6C580.7 633.3 602.2 611.9 614.5 584.2C620.6 571.9 629.8 565.8 642.1 565.8C645.2 565.8 651.3 565.8 654.4 568.9C669.7 575 675.9 593.4 669.7 605.7C651.3 645.6 620.6 679.3 580.7 694.7C565.4 700.8 550 694.7 543.9 679.4C531.7 667.1 537.8 651.8 553.1 645.6zM798.6 507.6C783.3 510.7 767.9000000000001 501.5 764.9000000000001 486.1C743.4000000000001 384.9 663.7 305.1 562.4000000000001 283.6C547.1 280.5 537.9000000000001 265.2000000000001 540.9000000000001 249.9C544 237.5999999999999 556.2 225.4 568.5 225.4C571.6 225.4 571.6 225.4 574.6 225.4C700.4000000000001 249.9 798.6 348.0999999999999 823.1 473.9C823.1 489.2 813.9 504.5 798.6 507.6zM215.7 507.6C200.4 504.5 191.2 489.2 194.2 473.9C218.7 348.1 316.9 249.9 442.7 225.4C445.8 225.4 445.8 225.4 448.8 225.4C461.1 225.4 473.3 234.5999999999999 476.4 249.9C479.5 265.2000000000001 470.3 280.5999999999999 454.9 283.5999999999999C353.7 305.0999999999999 273.9 384.8 252.4 486.0999999999999C249.4 501.4 234.1 510.6 215.7 507.6zM476.4 829.7C473.3 845 458 854.2 442.7 851.2C316.9 826.7 218.7 728.5 194.2 602.7C191.1 587.4 200.3 572 215.7 569C218.8 569 218.8 569 221.8 569C234.1 569 246.3 578.2 249.4 593.5C270.9 694.7 350.6 774.5 451.9 796C470.3 796 479.5 811.3 476.4 829.7zM820.1 602.7C795.6 728.5 697.4000000000001 826.7 571.6 851.2C556.3000000000001 854.3 540.9 845.0999999999999 537.9 829.7C534.8000000000001 814.4 544 799 559.4 796C663.7 774.5 743.5 694.8 761.9000000000001 593.5C765 581.2 777.2 569 789.5 569C792.6000000000001 569 792.6000000000001 569 795.6000000000001 569C813.9 572 823.1 587.3 820.1 602.7z" />
    <glyph glyph-name="diandian"
      unicode="&#xEA0F;"
      horiz-adv-x="1024" d=" M109.7000000000001 541.3C56.9 541.3 10.6 495.1 10.6 442.2000000000001S56.8 343.1 109.7000000000001 343.1S208.7000000000001 389.3 208.7000000000001 442.2000000000001S169.1 541.3 109.7000000000001 541.3zM505.9 541.3C453.1 541.3 406.8 495.1 406.8 442.2000000000001S453 343.1 505.9 343.1S604.9 389.3 604.9 442.2000000000001S565.3000000000001 541.3 505.9 541.3zM902.1 541.3C849.3 541.3 803 495.1 803 442.2000000000001S849.2 343.1 902.1 343.1S1001.1 389.3 1001.1 442.2000000000001S961.5 541.3 902.1 541.3z" />
    <glyph glyph-name="down"
      unicode="&#xEA10;"
      horiz-adv-x="1024" d=" M79.786673 2363.954759C74.416362 2358.584448 71.09471 2351.165478 71.09471 2342.9708419999997C71.09471 2334.776206 74.416362 2327.357236 79.786673 2321.986925L511.073396 1890.648013L944.531575 2324.157358C949.346231 2328.972014 952.324052 2335.623504 952.324052 2342.9708419999997S949.346231 2356.969671 944.531575 2361.784326L939.824366 2366.490511C934.267813 2372.04604 926.593017 2375.482303 918.116972 2375.4812789999996C909.63888 2375.4812789999996 901.964084 2372.04604 896.4095779999999 2366.490511L511.073396 1981.103164L127.185192 2365.042533C121.259226 2370.968499 113.072776 2374.6339820000003 104.030843 2374.6339820000003C94.987886 2374.6339820000003 86.801437 2370.968499 80.87547 2365.042533L79.786673 2363.954759z" />
    <glyph glyph-name="edit"
      unicode="&#xEA11;"
      horiz-adv-x="1024" d=" M114.508 2370.3469999999998H93.175V1844.074C93.175 1785.291 141.067 1737.563 199.862 1737.563H899.281V2167.545C899.281 2179.327 889.7299999999999 2188.878 877.948 2188.878C866.1659999999999 2188.878 856.615 2179.327 856.615 2167.545V1758.8960000000002L877.948 1780.229H199.862C164.598 1780.229 135.841 1808.887 135.841 1844.074V2349.013L114.508 2327.6800000000003H596.9269999999999C608.709 2327.6800000000003 618.2599999999999 2337.2309999999998 618.2599999999999 2349.013S608.7089999999998 2370.3460000000005 596.9269999999999 2370.3460000000005H114.5079999999999zM458.619 2064.182L454.228 2058.608L450.13 1894.497L608.068 1950.596L955.329 2404.3450000000003L811.3639999999999 2512.013L458.6199999999999 2064.181zM802.471 2465.385L912.5 2383.0969999999998L908.335 2413.1459999999997L578.027 1981.548L587.8280000000001 1988.685L465.0900000000001 1945.089L493.5570000000001 1924.454L496.7030000000001 2050.449L492.1350000000001 2037.781L832.0050000000001 2469.268L802.469 2465.384zM846.583 2303.158L871.573 2337.74L775.765 2406.975L750.775 2372.393L846.583 2303.158z" />
    <glyph glyph-name="edit1"
      unicode="&#xEA12;"
      horiz-adv-x="1024" d=" M365.8 942.1L28 300.8000000000001L13.4 61L214.1 188.3L551.8 829.5L365.8 942.1zM649.7 697.4000000000001V599.5H992.4V697.4000000000001H649.7zM551.8 354.7000000000001H992.4V452.6H551.8V354.7000000000001zM405 109.9000000000001H992.4V207.8000000000001H405V109.9000000000001z" />
    <glyph glyph-name="erp"
      unicode="&#xEA13;"
      horiz-adv-x="1024" d=" M407.2 723.6H258.9V960.9H407.2V723.6zM318.2 782.9H347.9V901.6H318.2V782.9z M733.5 723.6H585.2V960.9H733.5V723.6zM644.5 782.9H674.2V901.6H644.5V782.9z M994.9 118.2000000000001H45.5V859.9000000000001H223.5V800.6H104.8V177.6H935.5V800.6H816.9V859.9000000000001H994.9V118.2000000000001z M466.5 871.9H525.8V812.5999999999999H466.5V871.9z M258.8 486.2H733.5V426.9H258.8V486.2z M258.8 367.5H733.5V308.2000000000001H258.8V367.5z M51.1 664.2H941.2V604.9H51.1V664.2z" />
    <glyph glyph-name="erweima"
      unicode="&#xEA14;"
      horiz-adv-x="1024" d=" M535.8000000000001 984.9H473.2V859.7H535.8000000000001V984.9zM410.6 984.9H35V609.3H410.6V984.9zM348 671.9H97.6V922.3H348V671.9zM160.2000000000001 546.7H35.0000000000001V484.1H160.2000000000001V546.7zM285.4000000000001 484.1H535.8000000000001V734.5H473.2V546.7H285.4V484.1zM598.4 984.9V609.3H974V984.9H598.4zM911.4 671.9H661V922.3H911.4V671.9zM35 46H410.6V421.5H35V46zM97.6 358.9H348V108.5H97.6V358.9zM723.6 484.1H974V546.7H723.6V484.1zM911.4 108.5H598.4000000000001V45.9H974V421.5H911.4V108.5zM786.2 358.9H473.2V45.9000000000001H535.8000000000001V296.3H786.2V358.9z" />
    <glyph glyph-name="guanwang"
      unicode="&#xEA15;"
      horiz-adv-x="1024" d=" M985 233.2000000000001H599.9V292.5H925.8V825.8H96.1999999999999V292.5H425.0999999999999V233.2000000000001H37V885H985V233.2000000000001z M866.5 351.8H155.5V766.6H866.5V351.8zM214.7 411H807.2V707.3H214.7V411z M481.4 295.5H540.7V233.3H481.4V295.5z M333.2 174H688.7V114.7000000000001H333.2V174z" />
    <glyph glyph-name="import-wrong"
      unicode="&#xEA16;"
      horiz-adv-x="90" d=" M86.5 38.5H80.2V77.1C80.2 79.2 79.4 81.1 78 82.6L77.9 82.7C76.4 84.1 74.5 85 72.3 85H17.7C15.5 85 13.5 84.1 12.2 82.7C10.8 81.2 9.9 79.3 9.9 77.1V38.6H3.5C1.5 38.5 0 37 0 35.1V3.5C0 1.6 1.5 0 3.5 0H86.6C88.5 0 90.1 1.6 90.1 3.5V35.1C90 37 88.4 38.5 86.5 38.5zM76 38.5H66.2V38.5C64.5 38.5 63 37.3 62.8 35.6C62.1 31.3 59.9 27.4 56.7 24.7C53.5 22 49.4 20.4 45 20.4C40.5 20.4 36.4 22 33.3 24.7C30.2 27.4 27.9 31.1 27.3 35.3C27.1 37.1 25.6 38.5 23.8 38.5H14V77.1C14 78.1 14.4 79.1 15.1 79.7C15.8 80.4 16.7 80.8 17.8 80.8H72.5C73.5 80.8 74.4 80.4 75.2 79.7L75.3 79.6C75.9 78.9 76.3 78 76.3 77V38.5zM43 39H47V74H43V39zM43 30H47V34H43V30z" />
    <glyph glyph-name="info-circle"
      unicode="&#xEA17;"
      horiz-adv-x="1024" d=" M504.5 978C247.2 978 38.5 769.3 38.5 512S247.2 46 504.5 46S970.5 254.7000000000001 970.5 512S761.8 978 504.5 978zM571 245.8H438V378.8H571.1L571 245.8L571 245.8zM571 445.5H438V778.3H571.1L571 445.5L571 445.5z" />
    <glyph glyph-name="kaixin"
      unicode="&#xEA18;"
      horiz-adv-x="1024" d=" M512 1624C794.76736 1624 1024 1853.23264 1024 2136S794.76736 2648 512 2648S0 2418.76736 0 2136S229.23264 1624 512 1624zM512 2551.98976C741.74464 2551.98976 928.01024 2365.74464 928.01024 2135.97952S741.76512 1719.9692799999998 512 1719.9692799999998S95.98976 1906.2144 95.98976 2135.97952S282.23488 2551.98976 512 2551.98976zM512 2049.24672C627.95776 2049.24672 738.22208 2080.04864 832 2134.1568C817.41824 1955.7145600000003 678.87104 1816.0000000000005 512 1816.0000000000005S206.58176 1955.8784000000005 192 2134.3001600000002C285.77792 2080.192 396.04224 2049.22624 512 2049.22624zM256 2295.98976C256 2349.01248 284.65152 2392 320 2392S384 2349.0124800000003 384 2295.98976C384 2242.96704 355.34848 2199.97952 320 2199.97952S256 2242.9670399999995 256 2295.98976zM640 2295.98976C640 2349.01248 668.65152 2392 704 2392S768 2349.0124800000003 768 2295.98976C768 2242.96704 739.34848 2199.97952 704 2199.97952S640 2242.9670399999995 640 2295.98976z" />
    <glyph glyph-name="left"
      unicode="&#xEA19;"
      horiz-adv-x="1024" d=" M743.516888 1629.550413L237.0673 2136L743.516888 2642.4485640000003L772.46008 2613.505371L294.954709 2136L772.46008 1658.494629z" />
    <glyph glyph-name="list1"
      unicode="&#xEA1A;"
      horiz-adv-x="1024" d=" M63 799.5H204.5V941H63V799.5zM346.1 941V799.5H983V941H346.1zM63 445.6H204.5V587.2H63V445.6zM346.1 445.6H983V587.2H346.1V445.6zM63 91.8H204.5V233.3H63V91.8zM346.1 91.8H983V233.3H346.1V91.8z" />
    <glyph glyph-name="loop"
      unicode="&#xEA1B;"
      horiz-adv-x="512" d=" M444.84 428.8400000000001C398.036 479.948 330.763 512 256 512C114.615 512 0 397.385 0 256H48C48 370.875 141.125 464 256 464C317.51 464 372.771 437.291 410.848 394.847L336 320H511.9999999999999V496L444.8399999999999 428.8400000000001z M464 256C464 141.125 370.875 48 256 48C194.49 48 139.229 74.709 101.153 117.153L176 192H0V16L67.16 83.16C113.964 32.052 181.237 0 256 0C397.385 0 512 114.615 512 256H464z" />
    <glyph glyph-name="maikefeng"
      unicode="&#xEA1C;"
      horiz-adv-x="1024" d=" M540.032 1801.28L540.032 1744L568.0640000000001 1744C583.5520000000001 1744 596.0960000000001 1731.52 596.0960000000001 1715.9679999999998S583.488 1688 568 1688L540.032 1688L483.968 1688L456 1688C440.512 1688 427.968 1700.48 427.968 1716.0320000000002S440.512 1744.064 456 1744.064L484.032 1744.064L484.032 1801.28C345.792 1813.76 228.736 1917.632 204.032 2052.032L260.032 2052.032C285.504 1939.84 392.064 1856 512 1856C631.872 1856 738.496 1939.84 764.032 2051.968L820.032 2051.968C795.264 1917.632 678.272 1813.76 540.032 1801.28zM512 1912C403.776 1912 316.0320000000001 1999.744 316.0320000000001 2107.968L316.032 2388.032C316.032 2496.256 403.776 2584 512 2584S707.968 2496.2560000000003 707.968 2388.032L707.968 2108.032C707.968 1999.744 620.224 1912 512 1912zM652.032 2388.032C652.032 2465.344 589.3760000000001 2528.0640000000003 512 2528.0640000000003S371.968 2465.344 371.968 2388.032L371.968 2108.032C371.968 2030.7200000000005 434.624 1968 512 1968S652.032 2030.656 652.032 2108.032L652.032 2388.032z" />
    <glyph glyph-name="male"
      unicode="&#xEA1D;"
      horiz-adv-x="1024" d=" M568.752 2465.376L575.568 2432.96L836.688 2492.7039999999997L578.992 2233.2799999999997C527.7919999999999 2279.3599999999997 461.232 2306.656 386.128 2306.656C225.712 2306.656 95.9839999999999 2176.96 95.9839999999999 2016.512S225.6799999999999 1726.368 386.128 1726.368C546.5439999999999 1726.368 676.2719999999999 1856.064 676.2719999999999 2016.512C676.2719999999999 2089.888 648.9759999999999 2158.176 602.896 2209.376L862.3199999999999 2468.8L800.8799999999999 2207.68L833.2959999999998 2199.1359999999995L915.2159999999998 2545.5999999999995L568.7519999999997 2465.3759999999997zM386.1600000000001 1760.5439999999999C244.4960000000001 1760.5439999999999 130.16 1874.88 130.16 2016.544S244.4960000000001 2272.544 386.1600000000001 2272.544C527.8240000000001 2272.544 642.1600000000001 2158.2079999999996 642.1600000000001 2016.544S527.8240000000001 1760.5439999999999 386.1600000000001 1760.5439999999999z" />
    <glyph glyph-name="map"
      unicode="&#xEA1E;"
      horiz-adv-x="1024" d=" M509.386988 2583.283046C617.264951 2583.283046 705.006294 2495.543749 705.006294 2387.66067C705.006294 2359.197408 698.210518 2330.611349 684.67627 2302.7170459999998L682.4546720000001 2298.015977L679.7214210000001 2293.76107C674.891416 2284.989289 669.5538510000001 2276.734278 660.9754750000001 2265.232316L510.084882 2033.078932L338.863243 2294.7772130000003L333.71499 2305.258938L327.996755 2314.026626C318.531173 2337.407126 313.764612 2362.123041 313.764612 2387.66067C313.765635 2495.543749 401.503908 2583.283046 509.386988 2583.283046M509.386988 2641.860163C368.974028 2641.860163 255.187495 2528.07363 255.187495 2387.659647C255.187495 2348.2070999999996 264.208962 2310.786839 280.219611 2277.4301269999996C280.281009 2277.364635 280.411993 2277.303237 280.411993 2277.1763469999996L510.210749 1925.894772L710.089056 2233.3379099999997C717.8406 2243.5034339999997 724.7642900000001 2254.176517 730.993155 2265.4860979999994L738.617809 2277.176348L737.347886 2277.176348C753.612315 2310.721348 763.585457 2347.8908999999994 763.585457 2387.659648C763.585457 2528.07363 649.793808 2641.860163 509.386988 2641.860163L509.386988 2641.860163zM515.103176 2246.171192C443.435926 2246.171192 385.177058 2304.4955520000003 385.177058 2376.161778C385.177058 2447.828004 443.435926 2506.1513410000002 515.103176 2506.1513410000002C586.7694019999999 2506.1513410000002 645.096832 2447.826981 645.096832 2376.161778C645.096832 2304.495552 586.769402 2246.171192 515.103176 2246.171192zM515.103176 2447.574225C475.776495 2447.574225 443.756221 2415.5529269999997 443.756221 2376.161779C443.756221 2336.77063 475.777519 2304.7493329999998 515.103176 2304.7493329999998C554.493301 2304.7493329999998 586.514599 2336.770631 586.514599 2376.161779C586.514599 2415.551904 554.493302 2447.574225 515.103176 2447.574225zM656.148539 1635.2942309999999C653.482826 1635.2942309999999 650.810974 1635.6708079999999 648.20666 1636.4331710000001L350.741781 1720.6226179999999L41.585629 1654.6715570000001C32.817941 1653.024034 23.988856 1654.986735 17.062096 1660.577057C10.199805 1666.1059799999998 6.199701 1674.494021 6.199701 1683.325154L6.199701 2224.570221C6.199701 2234.416473 11.15148 2243.630322 19.415701 2249.0323559999997L140.252813 2328.638415C153.660171 2337.4715939999996 171.831019 2333.721177 180.791088 2320.313819C189.685665 2306.783664 185.935248 2288.612816 172.466492 2279.718239L64.773747 2208.813353L64.773747 1719.475492L345.659019 1779.39007C350.233198 1780.4062130000002 355.250468 1780.3376520000002 359.70185 1778.881487L656.085094 1695.017451L959.523011 1782.5633429999998L959.523011 2284.1645040000003L840.39482 2235.497085C825.532321 2229.332688 808.373522 2236.5797430000002 802.213219 2251.573225C796.113291 2266.5012159999997 803.29076 2283.5945229999998 818.285266 2289.754826L977.758327 2354.8749629999998C986.716349 2358.5639819999997 997.008763 2357.547839 1005.140978 2352.080314C1013.207701 2346.620975 1018.101151 2337.471595 1018.101151 2327.7491629999995L1018.101151 1760.514163C1018.101151 1747.490545 1009.460353 1735.9937 996.943272 1732.374266L664.2787069999999 1636.43317C661.615041 1635.670807 658.88179 1635.2942309999999 656.148539 1635.2942309999999z" />
    <glyph glyph-name="mic"
      unicode="&#xEA1F;"
      horiz-adv-x="1024" d=" M512 2584C424.6 2584 354 2509 354 2417L354 2108C354 2016 424.6 1941 512 1941C599.4 1941 670 2016 670 2108L670 2417C670 2509 599.4 2584 512 2584zM638 2108C638 2033.6 581.4 1973 512 1973C442.6 1973 386 2033.6 386 2108L386 2417C386 2491.4 442.6 2552 512 2552C581.4 2552 638 2491.4 638 2417L638 2108zM734 2264L734 2104.6C734 1984.2 634.4 1886.2 514 1886.2C393.6 1886.2 294 1984.2 294 2104.6L294 2264L256 2264L256 2104.6C256 1970.2 362 1859.4 496 1849.6L496 1724L350 1724L350 1688L672 1688L672 1724L534 1724L534 1849.6C666 1859.4 768 1970.2 768 2104.6L768 2264L734 2264z" />
    <glyph glyph-name="noconflict"
      unicode="&#xEA20;"
      horiz-adv-x="121" d=" M92 79.2626953L92 116.00113051C92 117.10426905 91.1019137 118 89.9910079 118L4.0089921 118C2.89702162 118 2 117.10648133 2 116.00738525L2 3.992615C2 2.895061 2.89843567 2 4.0089921 2L89.9910079 2C91.1010633 2 92 2.899272 92 4.009763L92 10L94 10L94 4.009763C94 1.795232 92.2061622 0 89.9910079 0L4.0089921 0C1.7948869000001 0 0 1.789461 0 3.992615L0 116.00738525C0 118.21244549 1.79383779 120 4.0089921 120L89.9910079 120C92.2051131000001 120 94 118.21021159 94 116.00113051L94 79.2626953L92 79.2626953z M19 31H34V29H19V31z M19 51H34V49H19V51z M19 71H46V69H19V71z M18 91H76V89H18V91z M116.5617292836805 230.5470461673247C102.2285275326038 239.3959295400007 97.7826090716546 258.1887225734795 106.6314924443306 272.5219243245561C115.4803757644744 286.8551259905424 134.2731685878244 291.3010441111303 148.606370338901 282.4521607384543C162.9395720048873 273.6032774183105 167.3854903356039 254.8104849353218 158.5366070154601 240.4772832693356C149.6877236427841 226.144081518259 130.8949309496668 221.6981628471809 116.5617292836805 230.5470461673247L116.5617292836805 230.5470461673247zM147.5557263612655 280.750353689386C134.1624066908318 289.0189824155346 116.6019281670153 284.8645999322642 108.3332994933988 271.4712803469207C100.0646707672503 258.077960676487 104.2190535908822 240.5174819425416 117.6123732613159 232.248853216393C131.0056928466593 223.9802245427766 148.5661712402433 228.1346075765374 156.8347999663919 241.527927246971C165.1034286400083 254.9212468323145 160.949045946609 272.4817250157697 147.5557263612655 280.750353689386L147.5557263612655 280.750353689386z M173.0793073006551 309.559395330582H174.1299512782905V297.4769895877742H173.0793073006551V309.559395330582z M79.0618798 34.0242513L79.7686457 33.348023L80.4603114 34.0396886L97.2103117 50.7896889L97.9174184999999 51.4967957L96.5032049 52.9110093L95.7960981 52.2039025L79.0460978 35.4539022L80.4445294 35.4693395L71.6913248 43.8443398L70.9687807 44.5356646L69.5861311 43.0905764L70.3086752 42.3992516z" />
    <glyph glyph-name="nolist"
      unicode="&#xEA21;"
      horiz-adv-x="96" d=" M4.0027785 120L91.9972210000001 120C94.207895 120 96 118.21053922 96 116.00738525L96 3.992615C96 1.787555 94.2101230000001 0 91.9972210000001 0L4.0027785 0C1.792105 0 0 1.789461 0 3.992615L0 116.00738525C0 118.21244549 1.7898769000001 120 4.0027785 120zM2 3.992615C2 2.894364 2.8963449 2 4.0027785 2L91.9972210000001 2C93.1057490000001 2 94 2.892323 94 3.992615L94 116.00738525C94 117.10563624 93.1036549999999 118 91.9972210000001 118L4.0027785 118C2.8942509999999 118 2 117.10767661 2 116.00738525L2 3.992615z M19 30C19 28.3431457505076 20.3431457505076 27 22 27C23.6568542494924 27 25 28.3431457505076 25 30C25 31.6568542494924 23.6568542494924 33 22 33C20.3431457505076 33 19 31.6568542494924 19 30z M31 31H77V29H31V31z M19 50C19 48.3431457505076 20.3431457505076 47 22 47C23.6568542494924 47 25 48.3431457505076 25 50C25 51.6568542494924 23.6568542494924 53 22 53C20.3431457505076 53 19 51.6568542494924 19 50z M31 51H77V49H31V51z M19 70C19 68.3431457505076 20.3431457505076 67 22 67C23.6568542494924 67 25 68.3431457505076 25 70C25 71.6568542494924 23.6568542494924 73 22 73C20.3431457505076 73 19 71.6568542494924 19 70z M31 71H77V69H31V71z M19 90C19 88.3431457505076 20.3431457505076 87 22 87C23.6568542494924 87 25 88.3431457505076 25 90C25 91.6568542494924 23.6568542494924 93 22 93C20.3431457505076 93 19 91.6568542494924 19 90z M31 91H77V89H31V91z" />
    <glyph glyph-name="order"
      unicode="&#xEA22;"
      horiz-adv-x="1024" d=" M353.508289 2237.94074L672.779823 2237.94074L672.779823 2206.013587L353.508289 2206.013587L353.508289 2237.94074zM353.508289 2102.252385L672.779823 2102.252385L672.779823 2070.325232L353.508289 2070.325232L353.508289 2102.252385zM353.508289 1966.559936L672.779823 1966.559936L672.779823 1934.640969L353.508289 1934.640969L353.508289 1966.559936zM712.024639 2461.433884L712.024639 2491.345124C712.024639 2513.3492770000003 694.1198499999999 2531.254066 672.115697 2531.254066L354.169345 2531.254066C332.1651920000001 2531.254066 314.260403 2513.3492770000003 314.260403 2491.345124L314.260403 2461.433884L209.836099 2461.433884L209.836099 1806.931333C209.836099 1771.668201 238.426251 1743.077026 273.690406 1743.077026L752.597707 1743.077026C787.860839 1743.077026 816.452014 1771.668201 816.452014 1806.931333L816.452014 2461.433884L712.024639 2461.433884zM362.151134 2483.363336L664.13391 2483.363336L664.13391 2411.527241L362.151134 2411.527241L362.151134 2483.363336zM768.561283 1822.894909C768.561283 1805.263343 754.265695 1790.967756 736.63413 1790.967756L289.6539830000001 1790.967756C272.0213940000001 1790.967756 257.7268300000001 1805.263344 257.7268300000001 1822.894909L257.726829 2413.543154L314.2614270000001 2413.543154L314.2614270000001 2403.5454520000003C314.2614270000001 2381.541299 332.166216 2363.6365100000003 354.1703690000001 2363.6365100000003L672.1167210000001 2363.6365100000003C694.1208740000001 2363.6365100000003 712.0256630000001 2381.541299 712.0256630000001 2403.5454520000003L712.0256630000001 2413.543154L768.5612840000001 2413.543154L768.561283 1822.894909z" />
    <glyph glyph-name="pie-graph"
      unicode="&#xEA23;"
      horiz-adv-x="768" d=" M384 736Q455.75 736 520.875 708.125T633.125 633.125T708.125 520.875T736 384T708.125 247.125T633.125 134.875T520.875 59.875T384 32T247.125 59.875T134.875 134.875T59.875 247.125T32 384T59.875 520.875T134.875 633.125T247.125 708.125T384 736zM352 352V670.25Q298.75 664.25 251.375 639.375T169.875 576.75T115.875 488.75T96 384Q96 325.5 118.875 272.125T180.25 180.25T272.125 118.875T384 96Q438.5 96 488.75 115.875T576.75 169.875T639.375 251.375T670.25 352H352zM416 670.25V416H670.25Q664.75 465.5 643 509.875T587.75 587.75T509.875 643T416 670.25z" />
    <glyph glyph-name="play-o"
      unicode="&#xEA24;"
      horiz-adv-x="1024" d=" M512 959.936C264.576 959.936 64 759.36 64 511.936C64 264.4480000000001 264.576 63.936 512 63.936S960 264.4480000000001 960 511.936C960 759.36 759.424 959.936 512 959.936zM512 128C299.904 128 128 299.904 128 512C128 724.032 299.904 896 512 896S896 724.096 896 512C896 299.8400000000001 724.16 128 512 128z M384 323.968V707.968L704 512z" />
    <glyph glyph-name="play-oo"
      unicode="&#xEA25;"
      horiz-adv-x="1024" d=" M512 1024C229.205 1024 0 794.795 0 512S229.205 0 512 0C794.7950000000001 0 1024 229.2050000000001 1024 512S794.795 1024 512 1024zM512 56.889C261.063 56.889 56.889 261.063 56.889 512S261.063 967.111 512 967.111C762.937 967.111 967.111 762.937 967.111 512S762.937 56.889 512 56.889z M723.228 556.828L672.654 586.24C587.776 635.5629999999999 428.032 728.405 417.735 734.3219999999999C384.569 753.4939999999999 341.3330000000001 727.78 341.3330000000001 690.5179999999999V334.906C341.3330000000001 306.632 363.406 284.4459999999999 391.5660000000001 284.4459999999999C400.3270000000001 284.4459999999999 409.031 286.7219999999999 416.711 290.988C437.475 302.65 709.518 460.972 723.456 469.2779999999999C739.214 478.665 748.601 495.1619999999999 748.487 513.31C748.487 531.3439999999998 739.043 547.6139999999999 723.228 556.8299999999999zM398.222 345.9410000000001V679.879C434.688 658.716 568.832 580.779 644.039 537.031L685.511 512.967C640.1709999999999 486.457 445.667 373.305 398.222 345.9410000000001z" />
    <glyph glyph-name="play"
      unicode="&#xEA26;"
      horiz-adv-x="1024" d=" M239.117 827.941V196.057L784.884 512.021z" />
    <glyph glyph-name="plus"
      unicode="&#xEA27;"
      horiz-adv-x="1024" d=" M512 2562.656Q529.664 2562.656 542.176 2550.1440000000002T554.6880000000001 2519.968L554.6880000000001 2178.624L896.0320000000002 2178.624Q913.6960000000003 2178.624 926.2080000000002 2166.112T938.7200000000003 2135.936T926.2080000000004 2105.76T896.0320000000003 2093.2480000000005L554.6880000000003 2093.2480000000005L554.6880000000003 1751.9040000000002Q554.6880000000003 1734.2400000000002 542.1760000000004 1721.728T512.0000000000003 1709.2160000000001T481.8240000000004 1721.728T469.3120000000004 1751.904L469.3120000000004 2093.248L127.9680000000004 2093.248Q110.3040000000004 2093.248 97.7920000000004 2105.76T85.2800000000004 2135.9359999999997T97.7920000000004 2166.112T127.9680000000004 2178.624L469.3120000000004 2178.624L469.3120000000004 2519.968Q469.3120000000004 2537.6319999999996 481.8240000000004 2550.144T512.0000000000003 2562.656z" />
    <glyph glyph-name="question-circle"
      unicode="&#xEA28;"
      horiz-adv-x="1024" d=" M529.9 980.3C274.5 976.8 70.3 767.1 73.6 511.7C77.1 256.5 286.8 52.2 542.2 55.5999999999999C797.4 59.0999999999999 1001.8 268.8 998.3 524.2C994.9 779.5 785.2 983.7 529.9 980.3zM528.5 236.6H526C486.7 237.8 459 266.7000000000001 460 305.5C461.2 343.6 489.6 371.3 527.7 371.3L530 371.2000000000001C570.3 370 597.8 341.2000000000001 596.7 301.4000000000001C595.4 263.4 567.5 236.6 528.5 236.6zM694 564.8C684.7 551.7 664.3 535.4 638.8 515.4L610.5 495.9C595 483.8 585.7 472.5 582.2 461.5C579.4 452.6 578.1 450.4 577.9 432.5L577.7 428H470L470.4 437.1C471.7 474.6 472.6 496.7 488.1 514.8C512.5 543.3 566.3 578 568.5 579.4C576.2 585.3 582.7 591.9 587.5 598.8C598.8 614.4 603.8 626.7 603.8 638.8C603.8 655.4 598.8 670.9 588.9 684.7C579.6 698.1 561.6 704.8 535.7 704.8C509.9 704.8 492.3 696.6 481.8 679.9C470.9 662.5 465.5 644.5999999999999 465.5 626V621.4H354.4L354.6 626.3C357.5 694.4 381.8 743.3 426.8 771.8C455 790 490.2 799.3 531.1999999999999 799.3C584.9 799.3 630.4 786.3 666.0999999999999 760.5999999999999C702.3 734.5 720.5999999999999 695.4 720.5999999999999 644.5C720.6 615.8 711.5 589.1 694 564.8L694 564.8z" />
    <glyph glyph-name="right"
      unicode="&#xEA29;"
      horiz-adv-x="1024" d=" M358.494349 1715.493807L704.263373 2119.232105C705.445292 2120.591056 706.462458 2122.0492670000003 707.3118020000001 2123.581156C707.3650140000001 2123.6763229999997 707.412086 2123.7725140000002 707.463251 2123.867682C707.6065140000001 2124.132718 707.74773 2124.3987779999998 707.88076 2124.666884C707.972858 2124.852102 708.055745 2125.038344 708.142726 2125.225609C708.226637 2125.4077580000003 708.314641 2125.5888830000004 708.394459 2125.773078C708.5049759999999 2126.026858 708.606283 2126.2826840000002 708.708614 2126.537488C708.756709 2126.6592610000002 708.808898 2126.778988 708.854947 2126.900762C708.9685340000001 2127.2016140000005 709.074958 2127.503489 709.1762650000001 2127.8074110000002C709.2038940000001 2127.8892750000005 709.234593 2127.969093 709.260176 2128.0509580000003C709.367623 2128.3794390000003 709.465861 2128.7109900000005 709.558981 2129.041518C709.576377 2129.1029160000003 709.59582 2129.1632910000003 709.612193 2129.22469C709.704291 2129.561358 709.787178 2129.9000720000004 709.865973 2130.23981C709.880299 2130.3012080000003 709.895649 2130.36056 709.908952 2130.4219590000002C709.981607 2130.751464 710.046075 2131.083015 710.10645 2131.4145660000004C710.119753 2131.489267 710.135103 2131.563969 710.148406 2131.6386700000003C710.201618 2131.949755 710.2466430000001 2132.259817 710.288599 2132.571925C710.3019019999999 2132.6722090000003 710.3172519999999 2132.7714699999997 710.330555 2132.872777C710.364324 2133.15214 710.39093 2133.4335490000003 710.415489 2133.7139349999998C710.427769 2133.850035 710.442095 2133.985111 710.452328 2134.1191639999997C710.4697239999999 2134.361688 710.479957 2134.6052339999997 710.491214 2134.847758C710.4994 2135.0237669999997 710.509634 2135.199775 710.512703 2135.375784C710.51782 2135.577375 710.516796 2135.77999 710.516796 2135.982605C710.516796 2136.199546 710.517819 2136.416487 710.512703 2136.633428C710.50861 2136.793064 710.498377 2136.9537229999996 710.4922369999999 2137.1143819999998C710.4799569999999 2137.373278 710.4697239999999 2137.6321749999997 710.4502809999999 2137.890048C710.4410709999999 2138.0087519999997 710.4287919999999 2138.127455 710.418559 2138.2461590000003C710.392976 2138.543941 710.364324 2138.8406999999997 710.3285079999999 2139.137459C710.3172519999999 2139.222393 710.3049719999999 2139.307328 710.292692 2139.3922620000003C710.24869 2139.7186970000002 710.202641 2140.045131 710.146359 2140.369519C710.135103 2140.430917 710.1228229999999 2140.490269 710.1115669999999 2140.551668C710.049145 2140.897545 709.98263 2141.2424 709.9058819999999 2141.586231C709.8946259999999 2141.633303 709.8833689999999 2141.680375 709.8731359999999 2141.726424C709.792295 2142.079465 709.7053139999999 2142.430459 709.609123 2142.7794059999997C709.594797 2142.8315949999997 709.579447 2142.883783 709.565121 2142.934949C709.46893 2143.274687 709.368646 2143.614424 709.2581289999999 2143.9510920000002C709.2345929999999 2144.02477 709.206964 2144.0984479999997 709.1824039999999 2144.171103C709.0770029999999 2144.483211 708.9695559999999 2144.793273 708.8528989999999 2145.101288C708.8099199999999 2145.2158980000004 708.7608009999999 2145.3284620000004 708.7157759999999 2145.442049C708.6113989999999 2145.705039 708.5070219999999 2145.969052 708.3944579999999 2146.228971C708.3166869999999 2146.407026 708.2307289999999 2146.583035 708.1488649999999 2146.760067C708.0608609999999 2146.952449 707.9749029999999 2147.14483 707.8797349999999 2147.335165C707.7477289999998 2147.602248 707.6065119999998 2147.866261 707.4652959999999 2148.1292510000003C707.4131069999999 2148.225442 707.3650119999999 2148.3226560000003 707.3117999999998 2148.4178229999998C706.4624559999999 2149.949712 705.4463129999998 2151.4069 704.2643939999998 2152.765851L358.494349 2556.506193C349.304036 2567.2376050000003 333.153194 2568.487062 322.422806 2559.296749C316.514236 2554.2365 313.481156 2547.06824 313.481156 2539.853931C313.481156 2533.96685 315.5032090000001 2528.048047 319.633273 2523.225205L651.2591829999999 2136.0010230000003L319.633273 1748.775818C315.503209 1743.952976 313.481156 1738.036219 313.481156 1732.147092C313.481156 1724.933807 316.515259 1717.7635 322.422806 1712.704274C333.153194 1703.5129379999998 349.304036 1704.762395 358.494349 1715.493807z" />
    <glyph glyph-name="search"
      unicode="&#xEA2A;"
      horiz-adv-x="512" d=" M497.914 14.087C479.131 -4.695 448.689 -4.695 429.906 14.087L345.043 98.95C310.1550000000001 76.568 268.913 63.233 224.384 63.233C100.469 63.233 0 163.687 0 287.617S100.469 512 224.384 512C348.315 512 448.7680000000001 411.548 448.7680000000001 287.617C448.7680000000001 243.103 435.4160000000001 201.846 413.05 166.941L497.914 82.078C516.6949999999999 63.296 516.6949999999999 32.869 497.914 14.087zM224.384 447.891C135.873 447.891 64.11 376.144 64.11 287.618S135.873 127.344 224.384 127.344C312.91 127.344 384.658 199.092 384.658 287.618S312.9100000000001 447.891 224.384 447.891z" />
    <glyph glyph-name="settings"
      unicode="&#xEA2B;"
      horiz-adv-x="1024" d=" M972.512 618.24L874.4639999999999 637.888C869.536 652.0640000000001 863.712 665.8240000000001 857.28 679.136L912.832 762.464C929.76 787.84 926.4 821.664 904.832 843.2L843.264 904.768C830.88 917.152 814.528 923.52 797.952 923.52C785.696 923.52 773.312 920 762.528 912.768L679.2 857.248C665.8240000000001 863.712 652.0640000000001 869.472 637.888 874.4000000000001L618.24 972.48C612.288 1002.432 585.984 1023.936 555.488 1023.936H468.448C437.9520000000001 1023.936 411.6800000000001 1002.4 405.6960000000001 972.48L386.048 874.4000000000001C371.872 869.472 358.112 863.6800000000001 344.8 857.248L261.504 912.768C250.656 920 238.3040000000001 923.52 226.016 923.52C209.472 923.52 193.12 917.152 180.736 904.768L119.2 843.2C97.632 821.6320000000001 94.272 787.84 111.2 762.464L166.72 679.1360000000001C160.256 665.7920000000001 154.4960000000001 652.0320000000002 149.5680000000001 637.8560000000001L51.456 618.2400000000001C21.536 612.2560000000001 0 585.9840000000002 0 555.488V468.4480000000001C0 437.9520000000001 21.536 411.6480000000002 51.456 405.6960000000002L149.5360000000001 386.0160000000002C154.4640000000001 371.8400000000002 160.2560000000001 358.0800000000002 166.6880000000001 344.7680000000002L111.2000000000001 261.4400000000002C94.2720000000001 236.0640000000002 97.6320000000001 202.2400000000001 119.2000000000001 180.7040000000002L180.768 119.1360000000002C193.1520000000001 106.7520000000002 209.504 100.3840000000002 226.0480000000001 100.3840000000002C238.3360000000001 100.3840000000002 250.7200000000001 103.9360000000003 261.504 111.1360000000002L344.832 166.6880000000002C358.176 160.1920000000002 371.936 154.4320000000003 386.112 149.5040000000003L405.728 51.4560000000002C411.712 21.5040000000002 437.9839999999999 -0.0319999999997 468.48 -0.0319999999997H555.52C586.016 -0.0319999999997 612.3199999999999 21.5360000000003 618.2719999999999 51.4560000000004L637.9519999999999 149.5040000000004C652.1279999999999 154.4320000000004 665.8879999999999 160.2560000000003 679.1999999999999 166.6880000000003L762.5279999999999 111.1360000000003C773.3439999999999 103.9360000000003 785.728 100.3840000000004 797.9519999999999 100.3840000000004C814.5279999999999 100.3840000000004 830.8799999999999 106.7520000000004 843.2639999999999 119.1360000000003L904.8319999999998 180.7040000000003C926.3999999999997 202.2720000000003 929.7599999999998 236.0640000000003 912.8319999999998 261.4400000000003L857.2799999999999 344.7680000000003C863.7759999999998 358.1440000000003 869.5359999999998 371.9040000000002 874.4639999999998 386.0800000000003L972.5119999999998 405.6960000000003C1002.4319999999998 411.6160000000002 1023.9999999999998 437.9520000000003 1023.9999999999998 468.4480000000002V555.4880000000003C1023.9999999999998 585.9840000000002 1002.4319999999998 612.2560000000002 972.5119999999998 618.2400000000002zM861.888 448.8C839.648 444.352 821.44 428.4799999999999 814.0160000000001 407.04C809.888 395.232 805.0880000000001 383.776 799.7120000000001 372.6719999999999C789.7600000000001 352.224 791.4560000000001 328.0959999999999 804.0320000000002 309.248L859.5840000000002 225.92L798.0160000000002 164.352L714.6880000000002 219.904C704.0000000000002 227.04 691.6160000000002 230.656 679.2000000000003 230.656C669.6960000000003 230.656 660.1280000000003 228.544 651.3280000000003 224.2879999999999C640.1920000000003 218.9119999999999 628.7680000000004 214.0479999999999 616.8960000000003 209.9199999999999C595.5200000000003 202.4959999999999 579.6480000000003 184.2879999999999 575.2000000000003 162.0479999999999L555.5200000000003 63.9359999999999H468.4800000000003L448.8640000000003 162.0479999999999C444.4160000000004 184.2879999999999 428.5440000000003 202.4959999999999 407.1360000000003 209.9199999999999C395.3280000000003 214.0479999999999 383.8400000000003 218.8479999999999 372.7360000000004 224.2239999999998C363.9040000000004 228.5439999999999 354.3680000000004 230.6559999999999 344.8320000000004 230.6559999999999C332.3840000000004 230.6559999999999 320.0320000000003 227.0399999999999 309.3440000000004 219.9039999999999L226.0160000000004 164.3519999999999L164.4480000000003 225.9199999999999L219.9680000000003 309.2479999999998C232.5440000000003 328.1279999999998 234.1760000000004 352.2559999999999 224.3520000000003 372.6079999999999C218.9760000000003 383.7439999999998 214.1440000000003 395.1679999999998 210.0160000000003 407.0399999999999C202.5920000000003 428.4159999999999 184.3520000000003 444.2879999999999 162.1440000000003 448.7359999999999L64.0640000000003 468.4159999999998L64.0000000000003 555.4879999999998L162.1120000000003 575.1039999999998C184.3200000000003 579.5519999999998 202.5600000000003 595.4239999999998 209.9840000000003 616.8319999999999C214.1120000000003 628.6399999999999 218.8800000000003 640.1279999999998 224.2880000000003 651.2319999999997C234.2080000000003 671.6479999999998 232.5440000000003 695.7759999999998 219.9360000000003 714.6239999999998L164.4480000000003 797.9519999999998L225.9840000000003 859.5199999999998L309.3120000000004 803.9999999999998C320.0000000000004 796.8639999999998 332.3840000000004 793.2479999999998 344.8000000000004 793.2479999999998C354.3040000000004 793.2479999999998 363.8400000000004 795.3599999999998 372.6720000000004 799.6159999999998C383.7760000000004 804.9919999999997 395.2320000000004 809.8239999999998 407.0720000000004 813.9519999999998C428.4800000000004 821.3759999999997 444.3520000000003 839.6159999999998 448.8000000000004 861.8239999999998L468.4480000000004 959.9039999999998L555.4880000000004 959.9359999999998L575.1040000000004 861.8239999999998C579.5520000000004 839.6159999999998 595.4240000000004 821.3759999999997 616.8640000000004 813.9519999999998C628.6720000000004 809.8239999999998 640.1280000000004 805.0559999999998 651.2320000000004 799.6479999999998C660.0960000000005 795.3599999999998 669.6000000000005 793.2479999999998 679.1680000000005 793.2479999999998C691.6160000000004 793.2479999999998 703.9680000000004 796.8639999999998 714.6560000000004 803.9999999999998L797.9840000000004 859.5199999999998L859.5520000000004 797.9519999999998L804.0000000000003 714.6239999999998C791.4240000000003 695.7439999999998 789.8240000000003 671.6479999999998 799.6160000000003 651.2639999999998C804.9920000000003 640.1599999999999 809.8560000000003 628.7039999999997 813.9840000000004 616.8639999999998C821.4080000000004 595.4559999999998 839.6160000000003 579.5839999999998 861.8560000000003 575.1359999999997L959.9040000000005 555.4879999999998L960.0000000000005 468.4479999999998L861.8880000000004 448.7999999999998zM512 735.9680000000001C388.32 735.9680000000001 288 635.648 288 511.9680000000001C288 388.2560000000001 388.32 287.9680000000001 512 287.9680000000001S736 388.288 736 511.9680000000001C736 635.6480000000001 635.6800000000001 735.9680000000001 512 735.9680000000001zM512 315.9360000000001C403.776 315.9360000000001 316 403.7440000000001 316 511.936C316 620.1600000000001 403.776 707.936 512 707.936C620.192 707.936 708 620.1600000000001 708 511.936C708 403.7440000000001 620.192 315.9360000000001 512 315.9360000000001zM512 639.9680000000001C441.28 639.9680000000001 384 582.688 384 511.9680000000001C384 441.2800000000001 441.28 383.9680000000001 512 383.9680000000001C582.688 383.9680000000001 640 441.2800000000001 640 511.9680000000001S582.688 639.9680000000001 512 639.9680000000001zM512 415.9360000000001C459.008 415.9360000000001 416 458.9440000000001 416 511.936S459.008 607.936 512 607.936S608 564.9280000000001 608 511.936C608 458.9440000000001 564.992 415.9360000000001 512 415.9360000000001z" />
    <glyph glyph-name="spinner"
      unicode="&#xEA2C;"
      horiz-adv-x="512" d=" M512 256C511.361 289.431 504.108 322.758 490.712 353.231C477.36 383.731 457.981 411.36 434.191 434.191C410.415 457.039 382.219 475.101 351.699 487.017C321.197 498.979 288.401 504.693 256 504C223.595 503.359 191.334 496.313 161.833 483.322C132.309 470.374 105.5619999999999 451.587 83.4659999999999 428.534C61.3539999999999 405.493 43.8859999999999 378.18 32.3729999999999 348.635C20.8159999999999 319.104 15.3089999999999 287.375 15.9999999999999 256C16.6429999999999 224.62 23.4819999999999 193.426 36.0669999999999 164.897C48.6109999999999 136.347 66.8049999999999 110.483 89.1219999999999 89.123C111.4269999999999 67.746 137.8579999999999 50.871 166.4289999999999 39.763C194.9879999999999 28.611 225.652 23.312 255.9999999999999 24C286.354 24.645 316.481 31.277 344.0379999999999 43.457C371.6129999999999 55.598 396.5959999999999 73.197 417.2209999999999 94.779C437.8619999999999 116.349 454.1429999999999 141.897 464.8479999999999 169.494C471.3649999999999 186.223 475.7879999999999 203.694 478.1189999999999 221.393C478.7419999999999 221.357 479.3679999999999 221.333 479.9999999999999 221.333C497.6729999999999 221.333 511.9999999999999 235.6590000000001 511.9999999999999 253.3330000000001C511.9999999999999 254.2310000000001 511.9529999999999 255.1190000000001 511.8809999999999 255.999H511.9999999999999zM461.153 171.026C449.4170000000001 144.425 432.411 120.326 411.564 100.436C390.7290000000001 80.5310000000001 366.064 64.843 339.442 54.5410000000001C312.8280000000001 44.2020000000001 284.2970000000001 39.3150000000001 256 40.0000000000001C227.698 40.6490000000001 199.702 46.8680000000001 174.09 58.2370000000001C148.465 69.5700000000001 125.248 85.9820000000001 106.093 106.0930000000001C86.924 126.1920000000001 71.829 149.9750000000001 61.932 175.6220000000001C51.997 201.2640000000001 47.318 228.7290000000001 48 256.0000000000001C48.651 283.2760000000001 54.664 310.2060000000001 65.627 334.8450000000001C76.556 359.4950000000001 92.376 381.8300000000001 111.75 400.2500000000001C131.115 418.6840000000001 154.015 433.1850000000001 178.687 442.6780000000001C203.356 452.2080000000001 229.755 456.681 256 456.0000000000001C282.25 455.347 308.114 449.5410000000001 331.781 438.9830000000001C355.457 428.4580000000001 376.909 413.2320000000001 394.593 394.5920000000001C412.291 375.9630000000001 426.1980000000001 353.9450000000001 435.288 330.2480000000001C444.4120000000001 306.5520000000001 448.6790000000001 281.2190000000001 448 256.0000000000001H448.1190000000001C448.0470000000001 255.1200000000001 448 254.2320000000001 448 253.3340000000001C448 236.8280000000001 460.496 223.2470000000001 476.543 221.5220000000001C473.431 204.1110000000001 468.278 187.1130000000001 461.153 171.0260000000001z" />
    <glyph glyph-name="times"
      unicode="&#xEA2D;"
      horiz-adv-x="1024" d=" M854.656 809.344L809.3439999999999 854.656L511.9999999999999 557.248L214.656 854.656L169.3439999999999 809.344L466.752 512L169.3439999999999 214.656L214.656 169.3439999999999L511.9999999999999 466.752L809.3439999999999 169.3439999999999L854.656 214.656L557.2479999999999 512z" />
    <glyph glyph-name="trash"
      unicode="&#xEA2E;"
      horiz-adv-x="1024" d=" M959.36 805.792C956.288 856.032 914.976 895.904 864 895.904H768V927.968C768 980.992 724.992 1023.968 672 1023.968H352C298.976 1023.968 256 980.992 256 927.968V895.9359999999999H160C108.96 895.9359999999999 67.68 856.064 64.608 805.824H64V735.968C64 700.64 92.672 671.968 128 671.968V671.968V127.968C128 57.28 185.312 -0.0320000000002 256 -0.0320000000002H768C838.688 -0.0320000000002 896 57.2799999999999 896 127.9679999999999V671.9679999999998C931.328 671.9679999999998 960 700.6399999999999 960 735.9679999999998V805.7919999999999H959.36zM320 927.936C320 945.632 334.304 959.936 352 959.936H672C689.696 959.936 704 945.632 704 927.936V895.936H320V927.936zM832 127.936C832 92.672 803.264 63.936 768 63.936H256C220.704 63.936 192 92.672 192 127.936V671.936H832V127.936zM896 767.9680000000001V735.9680000000001H128V799.936C128 817.6320000000001 142.304 831.936 160 831.936H864C881.696 831.936 896 817.6320000000001 896 799.936V767.9680000000001zM288 127.808H352C369.6960000000001 127.808 384 142.112 384 159.808V575.808C384 593.504 369.6960000000001 607.808 352 607.808H288C270.304 607.808 256 593.504 256 575.808V159.808C256 142.112 270.304 127.808 288 127.808zM288 575.8399999999999H352V159.8399999999999H288V575.8399999999999zM480 127.808H544C561.696 127.808 576 142.112 576 159.808V575.808C576 593.504 561.696 607.808 544 607.808H480C462.304 607.808 448 593.504 448 575.808V159.808C448 142.112 462.304 127.808 480 127.808zM480 575.8399999999999H544V159.8399999999999H480V575.8399999999999zM672 127.808H736C753.696 127.808 768 142.112 768 159.808V575.808C768 593.504 753.696 607.808 736 607.808H672C654.304 607.808 640 593.504 640 575.808V159.808C640 142.112 654.304 127.808 672 127.808zM672 575.8399999999999H736V159.8399999999999H672V575.8399999999999z" />
    <glyph glyph-name="up"
      unicode="&#xEA2F;"
      horiz-adv-x="1024" d=" M947.546747 1939.359434L539.544333 2386.0428229999998C531.74674 2393.8639519999997 521.402137 2397.195837 511.193635 2396.672928C500.984109 2397.195837 490.639507 2393.8639519999997 482.841913 2386.0428229999998L74.833359 1939.359434C60.21543 1924.698526 60.21543 1900.931216 74.833359 1886.270308C89.451288 1871.6094 113.15413 1871.6094 127.773082 1886.270308L511.192612 2306.037674L894.607025 1886.270308C909.224954 1871.6094 932.927796 1871.6094 947.546748 1886.270308S962.164676 1924.698526 947.546747 1939.359434z" />
    <glyph glyph-name="wave-right"
      unicode="&#xEA30;"
      horiz-adv-x="1024" d=" M577.5 708C548.9 770 508.2 824.9 456.6 871.4L455.7 872.2C446.8 879.3 432.9 888.8 413.1 888.8C382.1 888.8 357 864.6 357 834.8C357 807.6 375.2 796.9000000000001 392.8 786.7C393.3 786.4 393.9 786 394.5 785.7C471.4 710.2 513.8 610.9 513.8 505.8C513.8 402.2000000000001 472.5 303.8 397.5 228.8C396.3 227.9000000000001 394.3 226.5 392.4 225.2000000000001C379.2 215.9 357 200.4 357 175.4C357 145.5999999999999 382.2 121.4 413.1 121.4C441.8 121.4 470.1 149.0999999999999 477.9 158.5999999999999C570.9 252.4 622 375.3 622 504.8C622.1 575.5 607.1 643.8 577.5 708z M245.6 744.5L243.8 745.9L241.6 746.9C230.9000000000001 752 221.4 754.4 211.6 754.4C207.8 754.4 204.6 754 202 753.8C201.3 753.7 200.5 753.6 199.8 753.6C172 751 153.3 729.4000000000001 153.3 699.7C153.3 675.2 168 665.2 182.2 655.4000000000001C185.7 653 189.4 650.5 193.4 647.5C233.7 609.5 255.8 559 255.8 505.2C255.8 453.5 235 404.5 197.3 366.9C193 364.3 189.1 362.3 185.3 360.3C171 352.9 153.1 343.7000000000001 153.1 317.6C153.1 287.8 178.3 263.6 209.2 263.6C230.7 263.6 249.6 270.8 265.6 285L265.8 285.2000000000001C296.7 313.4 321.1 346.6 338.1 383.9000000000001C356 422.4 365 463.6 365 506.2C365 599.2 321.5 686.1 245.6 744.5z M838.1 761.5C810.5 837.4 770.5 908.3 719.1 972.2C704.6 994.1 686.4000000000001 1005.2 664.9000000000001 1005.2C634.5 1005.2 611.7 982.4 611.7 952.3C611.7 933.1 621.4000000000001 921.5 630.8000000000001 910.2L631.7 909.2C675.3000000000001 854.2 709.2 793.3 732.6 728.3C756.8000000000001 660.8 769 590.2 769 518.2C769 445.6 756.6 374.4 732 306.4C708.3000000000001 240.9 673.9000000000001 179.7000000000001 629.6 124.5C620.9000000000001 114.5 616.1 101.9 616.1 89.1C616.1 58.7000000000001 641.8000000000001 33.8 673.5 33.8C696.6 33.8 717.3000000000001 47.2 726.3000000000001 67.6C775.4000000000001 130.5 813.5 199.9000000000001 839.9000000000001 273.9000000000001C867.5000000000001 351.5 881.6000000000001 432.8000000000001 881.6000000000001 515.4000000000001C881.3 599.7 866.8 682.5 838.1 761.5z" />
    <glyph glyph-name="wifi"
      unicode="&#xEA31;"
      horiz-adv-x="1024" d=" M244.32 2022.944C236.288 2022.944 228.224 2025.952 222.016 2032C209.344 2044.32 209.056 2064.608 221.376 2077.248C299.296 2157.376 403.808 2201.504 515.616 2201.504C625.056 2201.504 728.064 2158.9440000000004 805.5999999999999 2081.696C818.1119999999999 2069.2160000000003 818.1759999999999 2048.992 805.6639999999999 2036.448C793.2159999999999 2023.904 772.9919999999998 2023.808 760.4159999999998 2036.384C694.9759999999999 2101.6000000000004 608.0319999999998 2137.504 515.6479999999998 2137.504C421.2479999999998 2137.504 333.0559999999998 2100.2560000000003 267.2639999999998 2032.64C260.992 2026.176 252.672 2022.944 244.32 2022.944zM97.632 2185.568C89.504 2185.568 81.344 2188.672 75.104 2194.848C62.56 2207.2960000000003 62.464 2227.5519999999997 74.912 2240.096C192.352 2358.464 348.8640000000001 2423.648 515.616 2423.648C680.096 2423.648 835.072 2359.968 952.128 2244.384C964.704 2231.968 964.8 2211.712 952.384 2199.136C939.9679999999998 2186.5280000000002 919.7119999999998 2186.432 907.1359999999999 2198.848C802.2079999999999 2302.5280000000002 663.1359999999999 2359.648 515.6479999999999 2359.648C366.08 2359.648 225.6959999999999 2301.184 120.3519999999999 2195.008C114.08 2188.7039999999997 105.856 2185.568 97.632 2185.568zM511.424 1815.264C503.584 1815.264 495.776 1818.112 489.664 1823.84L394.464 1912.224C381.824 1923.904 380.736 1943.552 392 1956.576C422.304 1991.712 465.856 2011.872 511.456 2011.872C559.2 2011.872 604.032 1990.1440000000005 634.432 1952.288C645.184 1938.88 643.424 1919.36 630.432 1908.064L532.384 1823.136C526.368 1817.856 518.912 1815.264 511.424 1815.264zM464.256 1934.72L512.16 1890.208L561.504 1932.96C532.768 1951.552 493.856 1952.288 464.256 1934.72z" />
    <glyph glyph-name="xueyuan"
      unicode="&#xEA32;"
      horiz-adv-x="1024" d=" M374.4 477.9C295.4 477.9 233.3 540 233.3 619S295.4 760.1 374.4 760.1S515.5 698 515.5 619S453.4 477.9 374.4 477.9zM374.4 703.7C326.4 703.7 289.7 667 289.7 619S326.4 534.3 374.4 534.3S459.1 571.1 459.1 619S422.4 703.7 374.4 703.7z M515.5 246.5L490.1 398.9L422.4 421.5L439.3 475.1L540.9 441.3L571.9 255.1L515.5 246.5z M233.3 246.5L176.9 255L207.9 441.2000000000001L309.5 475.1L326.4000000000001 421.5L258.7000000000001 398.9L233.3 246.5z M628.4 703.7H741.3V647.3H628.4V703.7z M628.4 590.8H854.2V534.4H628.4V590.8z M628.4 477.9H854.2V421.5H628.4V477.9z M628.4 365.1H854.2V308.7000000000001H628.4V365.1z M374.4 195.8H656.6V139.4000000000001H374.4V195.8z M967 139.3H713V195.7000000000001H910.5V816.5H120.4V195.7000000000001H318V139.3H64V873H967V139.3z" />
    <glyph glyph-name="yingxiao"
      unicode="&#xEA33;"
      horiz-adv-x="1024" d=" M477.7 380.4H329.9V439.5H418.6V676H270.8V735.1H477.8V380.4z M980.4 191.1L439.3 383.3L460 439.5L921.2 273.9V841.6L457 679L436.3 735.2L980.3 924.4V191.1z M823.7 744L844.4 687.8L578.2 590.3L557.5 646.5L823.7 744z M211.6 380.4H34.2V735.2H211.6V380.4zM93.3 439.5H152.4V676H93.3V439.5z M270.7 84.7000000000001C205.7 84.7000000000001 152.4 137.9 152.4 203V321.2000000000001H211.5V202.9C211.5 170.4 238.1 143.8 270.6 143.8S329.7 170.4 329.7 202.9V321.2000000000001H448V262.0999999999999H388.9V203C389 137.9 335.8 84.7000000000001 270.7 84.7000000000001z" />
    <glyph glyph-name="zoom"
      unicode="&#xEA34;"
      horiz-adv-x="13" d=" M-1409.899606 0.449895C-1409.8861230000002 0.568322 -1409.872774 0.686735 -1409.8591310000002 0.805148C-1409.807359 1.254714 -1409.755186 1.704239 -1409.703747 2.153845C-1409.657343 2.559392 -1409.613072 2.965192 -1409.56515 3.370552C-1409.536759 3.610603 -1409.503318 3.850028 -1409.471423 4.089652C-1409.4679190000002 4.115885 -1409.4610980000002 4.141971 -1409.453105 4.167257C-1409.377684 4.406043 -1409.1907780000001 4.467714 -1408.9886040000001 4.318352C-1408.9334880000001 4.277624 -1408.882861 4.230195 -1408.833513 4.182392C-1408.648526 4.0032 -1408.465257 3.82221 -1408.280696 3.642578C-1408.0825180000002 3.44969 -1407.981038 3.439644 -1407.7599460000001 3.605953C-1407.6628890000002 3.678962 -1407.574666 3.764761 -1407.4879340000002 3.850347C-1406.754699 4.57395 -1406.023462 5.299591 -1405.289081 6.022035C-1405.226823 6.083293 -1405.148832 6.130283 -1405.073398 6.176074C-1404.872982 6.297684 -1404.679828 6.263325 -1404.516357 6.11283C-1404.273149 5.888967 -1404.037548 5.656243 -1403.808169 5.418178C-1403.655023 5.25921 -1403.648788 5.042114 -1403.783042 4.856487C-1403.858049 4.752782 -1403.944901 4.656045 -1404.035896 4.565743C-1404.786091 3.821304 -1405.538684 3.079315 -1406.289825 2.335835C-1406.344902 2.281331 -1406.398433 2.224283 -1406.445529 2.162904C-1406.545717 2.032327 -1406.541973 1.934711 -1406.430461 1.812061C-1406.2975390000001 1.665883 -1406.160274 1.523675 -1406.024728 1.379895C-1405.8967750000002 1.244189 -1405.7667580000002 1.110401 -1405.64099 0.972723C-1405.42195 0.732925 -1405.484167 0.497444 -1405.799852 0.416988C-1405.985558 0.369638 -1406.180112 0.35497 -1406.371454 0.332135C-1406.787779 0.28248 -1407.2045440000002 0.236597 -1407.621229 0.189967C-1408.081999 0.138394 -1408.542782 0.086928 -1409.003752 0.037141C-1409.147052 0.021673 -1409.290806 0.008963 -1409.434692 0.000822C-1409.493779 -0.002508 -1409.554664 0.004646 -1409.613125 0.015624C-1409.772466 0.045561 -1409.8715080000002 0.161576 -1409.8852700000002 0.325593C-1409.888015 0.358314 -1409.894743 0.390702 -1409.899632 0.423236C-1409.899606 0.432136 -1409.899606 0.441009 -1409.899606 0.449895L-1409.899606 0.449895zM-1396.949816 12.547024C-1396.963299 12.428597 -1396.976648 12.310171 -1396.990291 12.191757C-1397.042077 11.742165 -1397.0942490000002 11.292626 -1397.145702 10.842994C-1397.192105 10.437447 -1397.236363 10.03162 -1397.284299 9.626247C-1397.3126900000002 9.386196 -1397.34613 9.146745 -1397.378038 8.90712C-1397.381529 8.880888 -1397.38839 8.854815 -1397.3963840000001 8.829528C-1397.471898 8.59073 -1397.6587100000002 8.529258 -1397.860991 8.678634C-1397.9143490000001 8.718043 -1397.963523 8.76374 -1398.0112720000002 8.809997C-1398.197832 8.990774 -1398.382713 9.17331 -1398.568886 9.354488C-1398.76689 9.547176 -1398.8686630000002 9.557194 -1399.089676 9.390846C-1399.186719 9.317797 -1399.274943 9.231984 -1399.361661 9.146398C-1400.093311 8.424261 -1400.822909 7.700072 -1401.555731 6.979147C-1401.619574 6.916343 -1401.699138 6.867715 -1401.77641 6.820752C-1401.976812 6.698941 -1402.169967 6.733874 -1402.333385 6.884342C-1402.57654 7.108259 -1402.812234 7.340929 -1403.041533 7.579074C-1403.194612 7.738082 -1403.200514 7.955151 -1403.0661 8.140791C-1402.991039 8.244456 -1402.904188 8.341193 -1402.81318 8.431495C-1402.064543 9.174403 -1401.313549 9.914939 -1400.563793 10.656701C-1400.5133930000002 10.706555 -1400.463526 10.757781 -1400.41968 10.813311C-1400.2990690000001 10.96607 -1400.3020000000001 11.058344 -1400.432523 11.200379C-1400.56322 11.3426 -1400.697155 11.481837 -1400.82973 11.622326C-1400.956217 11.756367 -1401.084676 11.88857 -1401.208898 12.024676C-1401.427619 12.264327 -1401.3648280000002 12.499848 -1401.048891 12.580091C-1400.863117 12.627267 -1400.668604 12.642056 -1400.477235 12.664771C-1400.065266 12.713679 -1399.652818 12.75847 -1399.2405170000002 12.804621C-1398.775323 12.856686 -1398.310077 12.908166 -1397.844924 12.960431C-1397.737395 12.972555 -1397.630106 12.986757 -1397.5226980000002 13L-1397.322855 13C-1397.303884 12.995257 -1397.285165 12.988542 -1397.2659 12.986078C-1397.090558 12.963655 -1396.978593 12.846494 -1396.9641510000001 12.670766C-1396.961473 12.638232 -1396.954705 12.606031 -1396.949816 12.573669L-1396.949816 12.547024L-1396.949816 12.547024z" />
  </font>
</defs>
</svg>
